<?xml version="1.0" encoding="UTF-8"?>
<svg id="Layer_2" xmlns="http://www.w3.org/2000/svg" viewBox="0 0 306 344.35">
  <g id="Layer_1-2" data-name="Layer_1">
    <g>
      <path d="M302.11,258.26c2.4-4.16,3.89-8.85,3.89-13.05V99.14c0-4.21-1.49-8.89-3.89-13.05l-149.11,86.09,149.11,86.09Z" style="fill: #00599c;"/>
      <path d="M166.25,341.19l126.5-73.03c3.64-2.1,6.96-5.74,9.36-9.9l-149.11-86.09L3.89,258.26c2.4,4.16,5.71,7.79,9.36,9.9l126.5,73.03c7.29,4.21,19.21,4.21,26.5,0Z" style="fill: #004482;"/>
      <path d="M302.11,86.09c-2.4-4.16-5.71-7.79-9.36-9.9L166.25,3.16c-7.29-4.21-19.21-4.21-26.5,0L13.25,76.19c-7.29,4.21-13.25,14.53-13.25,22.95v146.07c0,4.21,1.49,8.89,3.89,13.05l149.11-86.09,149.11-86.09Z" style="fill: #659ad2;"/>
      <path d="M153,274.17c-56.24,0-102-45.76-102-102s45.76-102,102-102c36.29,0,70.14,19.53,88.33,50.97l-44.14,25.54c-9.1-15.74-26.04-25.51-44.19-25.51-28.12,0-51,22.88-51,51s22.88,51,51,51c18.15,0,35.09-9.78,44.19-25.51l44.14,25.54c-18.19,31.44-52.04,50.97-88.33,50.97Z" style="fill: #fff;"/>
    </g>
  </g>
</svg>