<?xml version="1.0" encoding="UTF-8"?>
<svg xmlns="http://www.w3.org/2000/svg" version="1.1" viewBox="0 0 60 60">
  <defs>
    <style>
      .cls-1 {
        fill: #fff;
      }

      .cls-2 {
        fill: #444;
      }
    </style>
  </defs>
  <!-- Generator: Adobe Illustrator 28.6.0, SVG Export Plug-In . SVG Version: 1.2.0 Build 709)  -->
  <g>
    <g id="Layer_2">
      <g id="Layer_2-2">
        <g>
          <circle class="cls-2" cx="30" cy="30" r="30"/>
          <g>
            <path class="cls-1" d="M28.3,34.4c0,.4-.1.7-.2,1-.9,2.9-2.8,4.8-5.7,5.7-2.5.8-5,.8-7.4,0-2.4-.7-4.2-2.2-5.3-4.4-1.9-3.9-2.3-8-.6-12,2.2-5.2,7.4-7.4,12.6-5.9,3.1.9,5,3.2,6.1,6.1.7,1.8.9,3.6,1,5.5,0,.5-.1.6-.6.6-5.2,0-10.4,0-15.6,0s-.6,0-.6.6c0,.7.1,1.4.3,2.1.7,2.8,3,4.6,6,4.8,1.7,0,3.4-.2,4.8-1.3.8-.6,1.3-1.3,1.5-2.3,0-.3.2-.5.6-.4,1,0,2.1,0,3.2,0h0ZM24.7,27.8c-.2-2.2-1.1-4.1-3-5.3-2.3-1.4-4.6-1.4-6.9,0-1.9,1.2-2.7,3-2.9,5.2,0,0,12.8,0,12.8,0Z"/>
            <path class="cls-1" d="M30.1,18.3c.3,0,.5,0,.6,0,1.2,0,2.3,0,3.5,0,.6,0,.9.2,1.2.7,1.6,2.3,3.2,4.6,4.7,6.9.1.2.2.3.4.5.1-.2.2-.3.3-.5,1.7-2.4,3.5-4.9,5.2-7.3.2-.3.4-.4.8-.4,1.2,0,2.4,0,3.6,0s.3,0,.5,0c-.2.2-.2.4-.4.5-2.4,3.3-4.9,6.5-7.3,9.8-.2.3-.3.5,0,.9,2.8,3.8,5.5,7.7,8.2,11.5.1.2.3.4.5.6-.2,0-.4,0-.5,0-1.3,0-2.6,0-3.9,0-.4,0-.6-.1-.8-.4-1.9-2.9-3.9-5.8-5.8-8.7-.1-.2-.2-.3-.4-.5-.2.2-.3.4-.4.5-1.9,2.9-3.9,5.8-5.8,8.6-.2.3-.5.5-.9.5-1.3,0-2.6,0-4.1,0,.1-.2.2-.4.3-.5,2.7-3.8,5.3-7.5,8-11.2.3-.4.3-.6,0-1-2.5-3.3-4.9-6.7-7.4-10-.1-.1-.2-.3-.4-.5h0Z"/>
          </g>
        </g>
      </g>
    </g>
  </g>
</svg>