<?xml version="1.0" encoding="UTF-8"?>
<svg id="Layer_2" xmlns="http://www.w3.org/2000/svg" xmlns:xlink="http://www.w3.org/1999/xlink" viewBox="0 0 21.96 25">
  <defs>
    <clipPath id="clippath">
      <path d="M10.39.16L.59,5.82c-.37.21-.59.6-.59,1.02v11.32c0,.42.23.81.59,1.02l9.8,5.66c.37.21.82.21,1.18,0l9.8-5.66c.37-.21.59-.6.59-1.02V6.84c0-.42-.23-.81-.59-1.02L11.57.16C11.39.05,11.18,0,10.98,0s-.41.05-.59.16Z" style="fill: none;"/>
    </clipPath>
    <linearGradient id="linear-gradient" x1="-12" y1="-36" x2="-11.72" y2="-36" gradientTransform="translate(-4317.87 -587.36) rotate(116.11) scale(115.31)" gradientUnits="userSpaceOnUse">
      <stop offset=".3" stop-color="#3e863d"/>
      <stop offset=".5" stop-color="#55934f"/>
      <stop offset=".8" stop-color="#5aad45"/>
    </linearGradient>
    <clipPath id="clippath-1">
      <path d="M.24,18.88c.09.12.21.23.35.31l8.41,4.85,1.4.8c.21.12.45.17.68.15.08,0,.16-.02.23-.04L21.64,6.03c-.08-.09-.17-.16-.28-.22l-6.42-3.7L11.55.16c-.1-.06-.2-.1-.31-.12L.23,18.88h.01Z" style="fill: none;"/>
    </clipPath>
    <linearGradient id="linear-gradient-2" x1="-12.49" y1="-39.28" x2="-12.31" y2="-39.28" gradientTransform="translate(5909.66 4302.27) rotate(-36.46) scale(177.06)" gradientUnits="userSpaceOnUse">
      <stop offset=".57" stop-color="#3e863d"/>
      <stop offset=".72" stop-color="#619857"/>
      <stop offset="1" stop-color="#76ac64"/>
    </linearGradient>
    <clipPath id="clippath-2">
      <path d="M10.86.01c-.16.02-.33.07-.47.15L.62,5.8l10.54,19.19c.15-.02.29-.07.42-.15l9.8-5.66c.3-.18.51-.47.57-.81L11.21.02c-.08-.02-.16-.02-.24-.02h-.11Z" style="fill: none;"/>
    </clipPath>
    <linearGradient id="linear-gradient-3" x1="-13.1" y1="-39.04" x2="-12.93" y2="-39.04" gradientTransform="translate(1701.99 5083.27) scale(129.89)" gradientUnits="userSpaceOnUse">
      <stop offset=".16" stop-color="#6bbf47"/>
      <stop offset=".38" stop-color="#79b461"/>
      <stop offset=".47" stop-color="#75ac64"/>
      <stop offset=".7" stop-color="#659e5a"/>
      <stop offset=".9" stop-color="#3e863d"/>
    </linearGradient>
  </defs>
  <g id="Layer_1-2" data-name="Layer_1">
    <g>
      <g style="clip-path: url(#clippath);">
        <path d="M31.86,4.86L4.25-8.68l-14.16,28.88,27.61,13.53L31.86,4.85h0Z" style="fill: url(#linear-gradient);"/>
      </g>
      <g style="clip-path: url(#clippath-1);">
        <path d="M-11.7,8.86L7.8,35.25l25.78-19.05L14.09-10.19-11.7,8.86Z" style="fill: url(#linear-gradient-2);"/>
      </g>
      <g style="clip-path: url(#clippath-2);">
        <path d="M.62,0v24.99h21.32V0H.62Z" style="fill: url(#linear-gradient-3);"/>
      </g>
    </g>
  </g>
</svg>