<?xml version="1.0" encoding="UTF-8"?>
<svg id="Layer_2" xmlns="http://www.w3.org/2000/svg" xmlns:xlink="http://www.w3.org/1999/xlink" viewBox="0 0 57.03 30">
  <defs>
    <radialGradient id="radial-gradient" cx="8.45" cy="202.51" fx="8.45" fy="202.51" r=".08" gradientTransform="translate(-3819.18 91908.04) scale(453.82 -453.82)" gradientUnits="userSpaceOnUse">
      <stop offset="0" stop-color="#aeb2d5"/>
      <stop offset=".3" stop-color="#aeb2d5"/>
      <stop offset=".75" stop-color="#484c89"/>
      <stop offset="1" stop-color="#484c89"/>
    </radialGradient>
  </defs>
  <g id="svg3430">
    <g>
      <g id="g3442">
        <g id="g3448">
          <g id="g3450">
            <path id="path3462" d="M0,15c0,8.28,12.77,15,28.52,15h0c15.75,0,28.52-6.72,28.52-15h0C57.03,6.72,44.26,0,28.52,0h0C12.77,0,0,6.72,0,15" style="fill: url(#radial-gradient);"/>
          </g>
        </g>
      </g>
      <g id="g3466">
        <g id="g3472">
          <path id="path3474" d="M28.52,28.89c15.13,0,27.4-6.22,27.4-13.89S43.65,1.11,28.52,1.11,1.11,7.33,1.11,15s12.27,13.89,27.4,13.89" style="fill: #777bb3;"/>
        </g>
      </g>
      <g id="g3478">
        <g id="g3484">
          <path id="path3486" d="M15.49,16.72c1.24,0,2.17-.23,2.76-.68.58-.45.98-1.22,1.19-2.31.2-1.01.12-1.72-.22-2.1-.35-.39-1.11-.59-2.26-.59h-1.99l-1.1,5.67h1.62ZM8.99,23.71c-.09,0-.18-.04-.24-.11-.06-.07-.08-.17-.06-.26l2.92-15.03c.03-.15.16-.25.3-.25h6.3c1.98,0,3.45.54,4.38,1.6.93,1.07,1.22,2.55.85,4.43-.15.76-.4,1.47-.76,2.1-.35.63-.82,1.22-1.39,1.75-.68.64-1.45,1.1-2.29,1.37-.83.27-1.89.41-3.15.41h-2.55l-.73,3.75c-.03.15-.16.25-.3.25h-3.27Z"/>
        </g>
        <g id="g3488">
          <path id="path3490" d="M15.23,11.36h1.73c1.38,0,1.87.3,2.03.48.27.3.32.93.15,1.83-.2,1.01-.56,1.72-1.08,2.12-.53.41-1.4.62-2.57.62h-1.24l.98-5.05ZM18.21,7.75h-6.3c-.3,0-.55.21-.61.5l-2.92,15.03c-.04.18.01.37.13.51.12.14.29.23.48.23h3.27c.3,0,.55-.21.61-.5l.68-3.5h2.29c1.3,0,2.39-.14,3.25-.42.88-.29,1.69-.77,2.41-1.44.59-.55,1.08-1.16,1.45-1.82.37-.66.64-1.4.79-2.2.38-1.97.07-3.55-.93-4.69-.99-1.13-2.54-1.7-4.61-1.7M13.5,17.03h1.99c1.32,0,2.3-.25,2.95-.75.65-.5,1.08-1.33,1.31-2.49.22-1.12.12-1.91-.3-2.36-.41-.46-1.24-.69-2.49-.69h-2.24l-1.22,6.29M18.21,8.37c1.89,0,3.28.5,4.14,1.49.87.99,1.13,2.38.78,4.16-.14.73-.38,1.41-.72,2.01-.34.61-.78,1.16-1.33,1.67-.65.61-1.38,1.05-2.18,1.31-.8.26-1.82.39-3.05.39h-2.8l-.78,4h-3.27l2.92-15.03h6.3" style="fill: #fff;"/>
        </g>
        <g id="g3492">
          <path id="path3494" d="M30.95,19.71c-.09,0-.18-.04-.24-.11-.06-.07-.08-.17-.07-.26l1.29-6.65c.12-.63.09-1.09-.09-1.28-.11-.12-.44-.31-1.4-.31h-2.34l-1.62,8.36c-.03.15-.16.25-.3.25h-3.25c-.09,0-.18-.04-.24-.11-.06-.07-.08-.17-.06-.26l2.92-15.03c.03-.15.16-.25.3-.25h3.25c.09,0,.18.04.24.11.06.07.08.17.06.26l-.71,3.63h2.52c1.92,0,3.22.34,3.98,1.03.77.71,1.01,1.85.72,3.37l-1.36,7c-.03.15-.16.25-.3.25h-3.3Z"/>
        </g>
        <g id="g3496">
          <path id="path3498" d="M29.1,3.75h-3.25c-.3,0-.55.21-.61.5l-2.92,15.03c-.04.18.01.37.13.51s.29.23.48.23h3.25c.3,0,.55-.21.61-.5l1.58-8.11h2.09c.97,0,1.17.21,1.18.22.06.06.14.35,0,1.01l-1.29,6.65c-.04.18.01.37.13.51s.29.23.48.23h3.3c.3,0,.55-.21.61-.5l1.36-7c.32-1.64.05-2.87-.81-3.66-.82-.75-2.19-1.12-4.19-1.12h-2.14l.63-3.26c.04-.18-.01-.37-.13-.51-.12-.14-.29-.23-.48-.23M29.1,4.37l-.78,4h2.89c1.82,0,3.08.32,3.77.95.69.64.9,1.66.62,3.09l-1.36,7h-3.3l1.29-6.65c.15-.76.09-1.27-.16-1.55-.26-.28-.8-.41-1.63-.41h-2.6l-1.67,8.61h-3.25l2.92-15.03h3.25" style="fill: #fff;"/>
        </g>
        <g id="g3500">
          <path id="path3502" d="M41.05,16.72c1.24,0,2.17-.23,2.76-.68.58-.45.98-1.22,1.19-2.31.2-1.01.12-1.72-.22-2.1-.35-.39-1.11-.59-2.26-.59h-1.99l-1.1,5.67h1.62ZM34.55,23.71c-.09,0-.18-.04-.24-.11-.06-.07-.08-.17-.07-.26l2.92-15.03c.03-.15.16-.25.3-.25h6.3c1.98,0,3.45.54,4.38,1.6.93,1.07,1.22,2.55.85,4.43-.15.76-.4,1.47-.76,2.1-.35.63-.82,1.22-1.39,1.75-.68.64-1.45,1.1-2.29,1.37-.83.27-1.89.41-3.15.41h-2.55l-.73,3.75c-.03.15-.16.25-.3.25h-3.27Z"/>
        </g>
        <g id="g3504">
          <path id="path3506" d="M40.79,11.36h1.73c1.38,0,1.87.3,2.03.48.27.3.32.93.15,1.83-.2,1.01-.56,1.72-1.08,2.12-.53.41-1.4.62-2.57.62h-1.24l.98-5.05ZM43.77,7.75h-6.3c-.3,0-.55.21-.61.5l-2.92,15.03c-.04.18.01.37.13.51.12.14.29.23.48.23h3.27c.3,0,.55-.21.61-.5l.68-3.5h2.29c1.3,0,2.39-.14,3.25-.42.88-.29,1.69-.77,2.41-1.44.59-.55,1.08-1.16,1.45-1.82.37-.66.64-1.4.79-2.2.38-1.97.07-3.55-.93-4.69-.99-1.13-2.54-1.7-4.61-1.7M39.06,17.03h1.99c1.32,0,2.3-.25,2.95-.75.65-.5,1.08-1.33,1.31-2.49.22-1.12.12-1.91-.3-2.36-.41-.46-1.24-.69-2.49-.69h-2.24l-1.22,6.29M43.77,8.37c1.89,0,3.28.5,4.14,1.49.87.99,1.13,2.38.78,4.16-.14.73-.38,1.41-.72,2.01-.34.61-.78,1.16-1.33,1.67-.65.61-1.38,1.05-2.18,1.31-.8.26-1.82.39-3.05.39h-2.8l-.78,4h-3.27l2.92-15.03h6.3" style="fill: #fff;"/>
        </g>
      </g>
    </g>
  </g>
</svg>