<?xml version="1.0" encoding="UTF-8"?>
<svg id="Layer_2" xmlns="http://www.w3.org/2000/svg" viewBox="0 0 22.06 25">
  <g id="Layer_1-2" data-name="Layer_1">
    <g>
      <polygon id="polygon2989" points="22.06 0 20.05 22.5 11.02 25 2.01 22.5 0 0 22.06 0" style="fill: #264de4;"/>
      <polygon id="polygon2991" points="18.33 21.07 20.05 1.84 11.03 1.84 11.03 23.09 18.33 21.07" style="fill: #2965f1;"/>
      <polygon points="11.03 4.6 11.02 4.6 4.11 4.6 4.36 7.36 11.02 7.36 11.03 7.36 14.91 7.36 14.66 10.19 11.03 10.19 11.02 10.19 4.6 10.19 4.85 12.95 11.02 12.95 11.03 12.95 14.42 12.95 14.1 16.53 11.02 17.36 11.02 17.36 11.02 17.36 7.94 16.53 7.75 14.33 6.25 14.33 4.97 14.33 5.36 18.66 11.02 20.23 11.03 20.23 11.03 20.22 16.68 18.66 16.72 18.19 17.37 10.93 17.44 10.19 17.94 4.6 11.03 4.6" style="fill: #fff;"/>
    </g>
  </g>
</svg>