<svg width="38" height="12" viewBox="0 0 38 12" fill="none" xmlns="http://www.w3.org/2000/svg">
	<path d="M37.7735 6L32 0.226497L26.2265 6L32 11.7735L37.7735 6ZM4 7C4.55228 7 5 6.55228 5 6C5 5.44772 4.55228 5 4 5V7ZM12 5C11.4477 5 11 5.44772 11 6C11 6.55228 11.4477 7 12 7V5ZM20 7C20.5523 7 21 6.55228 21 6C21 5.44772 20.5523 5 20 5V7ZM28 5C27.4477 5 27 5.44772 27 6C27 6.55228 27.4477 7 28 7V5ZM0 7L4 7V5L0 5V7ZM12 7L20 7V5L12 5V7ZM28 7L32 7V5L28 5V7ZM37.7735 6L32 0.226497L26.2265 6L32 11.7735L37.7735 6ZM4 7C4.55228 7 5 6.55228 5 6C5 5.44772 4.55228 5 4 5V7ZM12 5C11.4477 5 11 5.44772 11 6C11 6.55228 11.4477 7 12 7V5ZM20 7C20.5523 7 21 6.55228 21 6C21 5.44772 20.5523 5 20 5V7ZM28 5C27.4477 5 27 5.44772 27 6C27 6.55228 27.4477 7 28 7V5ZM0 7L4 7V5L0 5V7ZM12 7L20 7V5L12 5V7ZM28 7L32 7V5L28 5V7Z" fill="#3b6798"></path>
</svg>