<?xml version="1.0" encoding="UTF-8"?>
<svg id="Layer_2" xmlns="http://www.w3.org/2000/svg" viewBox="0 0 46.21 64.02">
  <g id="Layer_1-2" data-name="Layer_1">
    <g>
      <path d="M30.35,23.12l-6.41,5.96-5.94-11.99,3.08-6.9c.8-1.4,2.05-1.38,2.83,0l6.45,12.93Z" style="fill: #ffa000;"/>
      <path d="M18,17.09l5.94,11.99L0,51.35,18,17.09Z" style="fill: #f57f17;"/>
      <path d="M37.35,14.01c1.14-1.1,2.33-.72,2.63.83l6.23,36.21-20.66,12.4c-.72.4-2.64.57-2.64.57,0,0-1.75-.21-2.41-.6L0,51.35,37.35,14.01Z" style="fill: #ffca28;"/>
      <path d="M18,17.09L0,51.35,8.02,1.28c.3-1.56,1.18-1.71,1.98-.33l8,16.14Z" style="fill: #ffa000;"/>
    </g>
  </g>
</svg>