<?xml version="1.0" encoding="UTF-8"?>
<svg id="Layer_2" xmlns="http://www.w3.org/2000/svg" viewBox="0 0 24.61 24">
  <g id="Layer_1-2" data-name="Layer_1">
    <path d="M12.3,0C5.51,0,0,5.51,0,12.3c0,5.44,3.52,10.05,8.41,11.67.61.11.81-.27.81-.59v-2.29c-3.42.74-4.13-1.45-4.13-1.45-.56-1.42-1.37-1.8-1.37-1.8-1.12-.76.09-.75.09-.75,1.24.09,1.89,1.27,1.89,1.27,1.1,1.88,2.88,1.34,3.58,1.02.11-.79.43-1.34.78-1.64-2.73-.31-5.61-1.37-5.61-6.08,0-1.34.48-2.44,1.27-3.3-.13-.31-.55-1.56.12-3.26,0,0,1.03-.33,3.38,1.26.98-.27,2.03-.41,3.08-.41,1.05,0,2.1.14,3.08.41,2.35-1.59,3.38-1.26,3.38-1.26.67,1.69.25,2.95.12,3.26.79.86,1.27,1.96,1.27,3.3,0,4.73-2.88,5.77-5.62,6.07.44.38.84,1.13.84,2.28v3.38c0,.33.2.71.82.59,4.89-1.63,8.41-6.24,8.41-11.67C24.61,5.51,19.1,0,12.3,0Z"/>
  </g>
</svg>