<?xml version="1.0" encoding="UTF-8"?>
<svg id="Layer_2" xmlns="http://www.w3.org/2000/svg" viewBox="0 0 28.92 20.36">
  <g id="Layer_1-2" data-name="Layer_1">
    <g>
      <path d="M.32,10.11c.18,0,.8.06,1.37.06.34,0,.43-.02.91-.02.19,0,.26.05.26.12,0,.08-.08.19-.26.24-.43.1-.35.24-.18.55.14.28,1.03,1.75,1.57,2.63.02.04.1.02.12-.02.34-.48,1.25-1.98,1.55-2.47.25-.43.12-.58-.35-.68-.18-.05-.25-.16-.25-.24s.14-.11.28-.11c.31,0,.5.01.78.01.44,0,1.14-.05,1.33-.05.13,0,.25.05.25.12,0,.1-.11.16-.31.22-.56.14-.91.44-1.31.94-.56.71-1.19,1.76-1.6,2.35-.13.19-.3.58-.3.73,0,.67.02,2.16.07,2.54.05.25.18.4.85.56.24.06.32.13.32.22,0,.1-.12.13-.36.13-.18,0-.77-.05-1.04-.05-.72,0-1.5.07-1.68.07-.2,0-.3-.06-.3-.13s.08-.17.34-.22c.65-.14.77-.41.78-.58.04-.49.04-1.79.04-2.48,0-.06-.07-.34-.11-.43-.2-.43-.95-1.64-1.52-2.52-.56-.84-.71-1.01-1.24-1.13-.23-.05-.34-.14-.34-.24,0-.07.12-.12.32-.12Z"/>
      <path d="M8.96,17.93c-.19,0-.31-.05-.31-.13,0-.07.08-.13.29-.19.28-.07.46-.22.48-.34.04-.17.05-.89.05-1.24s.01-1.73-.01-1.87c-.01-.08-.14-.18-.49-.43-.07-.05-.1-.08-.1-.13,0-.08.11-.18.24-.2.44-.1,1.01-.36,1.19-.41.05,0,.11.12.11.13,0,.13-.07,1.69-.07,2.37s.01,1.18.02,1.6c.01.38.28.41.58.5.19.06.26.12.26.2,0,.07-.14.12-.28.12-.08,0-.68-.04-.94-.04-.4,0-.82.05-1.02.05ZM10.49,11.19c0,.32-.34.59-.58.59-.08,0-.28-.05-.38-.14-.1-.11-.18-.24-.18-.44,0-.11.05-.3.14-.43.12-.11.3-.16.47-.16.32,0,.53.37.53.59Z"/>
      <path d="M11.35,19.41s.23-.16.29-.16c.05,0,.29.08.37.14.23.14.46.25.62.25.2,0,.31-.04.48-.23.19-.2.3-.49.34-1,.05-.74.07-2.04.07-3.74s-.02-2.95-.07-3.53c-.02-.24-.1-.54-.71-.65-.28-.05-.37-.13-.37-.23s.1-.14.32-.14c.37,0,.8.04,1.33.04.42,0,.89-.04,1.26-.04.14,0,.32.02.32.12,0,.12-.11.19-.36.24-.48.1-.68.26-.68.88,0,.98-.05,4.4-.05,5.43-.01,1.45-.68,2.51-1.29,2.97-.55.42-1.06.58-1.37.58-.4,0-.78-.24-.78-.47,0-.11.16-.36.28-.48Z"/>
      <path d="M17.1,17.93c-.19,0-.31-.05-.31-.13,0-.07.08-.13.29-.19.28-.07.46-.22.48-.34.04-.17.05-.89.05-1.24s.01-1.73-.01-1.87c-.01-.08-.14-.18-.49-.43-.07-.05-.1-.08-.1-.13,0-.08.11-.18.24-.2.44-.1,1.01-.36,1.19-.41.05,0,.11.12.11.13,0,.13-.07,1.69-.07,2.37s.01,1.18.02,1.6c.01.38.28.41.58.5.19.06.26.12.26.2,0,.07-.14.12-.28.12-.08,0-.68-.04-.94-.04-.4,0-.82.05-1.02.05ZM18.62,11.19c0,.32-.34.59-.58.59-.08,0-.28-.05-.38-.14-.1-.11-.18-.24-.18-.44,0-.11.05-.3.14-.43.12-.11.3-.16.47-.16.32,0,.53.37.53.59Z"/>
      <path d="M25.03,13.73c.7.7.83,1.68.72,2.2-.09.59-.33,1.01-.71,1.39s-.99.64-1.57.69c-.66.07-1.5-.25-1.93-.67-.64-.64-.78-1.32-.73-1.92.03-.49.22-1.15.79-1.72.84-.84,2.36-1.03,3.43.03ZM21.39,14.91c-.02.42.23,1.06.67,1.5.28.28.58.51.86.65.85.42,1.64.25,2.04-.16.09-.09.24-.32.24-.8-.02-.44-.37-1.14-.74-1.5-.44-.44-1.03-.82-1.72-.87-.39-.02-.82.16-1.04.38-.18.18-.28.47-.31.8Z"/>
      <path d="M28.92,17.35c0,.38-.28.7-.67.7-.29,0-.66-.18-.66-.7s.44-.7.66-.7c.52,0,.67.46.67.7Z"/>
      <path d="M21.22,10.68c-.07-.2-.23-.64-.35-.8-.07-.12-.13-.23-.13-.29s.13-.12.18-.12c.2,0,.49.05.6.05.06,0,.04-.06.04-.07-.32-.48-.66-1.1-.66-1.61,0-.59.26-.92.46-1.09.31-.26.86-.42,1.46-.42.23,0,2.02-.02,2.18-.04.18-.02.34-.14.42-.44.06-.23.12-.3.2-.3s.13.17.13.36c0,.28-.02.55-.02.89,0,.3.02.67.02.83,0,.11-.05.28-.14.28-.08,0-.16-.13-.2-.28-.11-.29-.2-.35-.6-.37-.4-.02-1.85-.04-2.19-.04-.43,0-.78.22-.89.36-.1.13-.23.49-.23.77,0,.53.18.84.38,1.07.04.04.18.12.29.12.16,0,2.73,0,2.88-.01.17-.01.26-.06.37-.44.04-.12.11-.22.18-.22.08,0,.14.13.14.3,0,.14-.01.48-.01.73,0,.44.04.79.04,1,0,.18-.05.31-.16.31-.08,0-.14-.12-.18-.25-.12-.4-.24-.47-.67-.5-.36-.04-1.4-.06-2.63-.06-.13,0-.25.02-.47.29-.11.16-.17.23-.2.23-.08,0-.2-.13-.24-.22Z" style="fill: #ccc;"/>
      <path d="M21.35.44c.25-.26.59-.42,1.01-.42.07,0,.2.1.2.23s0,2.18-.01,2.73c0,.04.06.08.1.1.1.04.3.06.42.06.47,0,1.02-.19,1.37-.46.36-.26.66-.77.66-1.34,0-.53-.13-.89-.43-1.09-.07-.05-.14-.11-.14-.16,0-.07.08-.1.14-.1.1,0,.23.05.29.08.61.42.9,1.06.9,1.74,0,1.3-.98,2.16-2.39,2.16-.96,0-1.92-.5-2.35-1.44-.14-.31-.22-.71-.22-.91,0-.42.16-.89.46-1.19ZM22.09,2.96c.06.02.13-.02.13-.05.01-.31.01-.95,0-1.55,0-.29-.06-.41-.3-.41-.34,0-.72.36-.72.79,0,.54.34,1,.89,1.21Z" style="fill: #ccc;"/>
    </g>
  </g>
</svg>