<?xml version="1.0" encoding="UTF-8"?>
<svg id="Layer_2" xmlns="http://www.w3.org/2000/svg" viewBox="0 0 28 21">
  <g id="Layer_1-2" data-name="Layer_1">
    <path d="M15.9,10.68l10.85,10.17c-.23.09-.48.15-.75.15H2c-.26,0-.52-.05-.75-.15l10.85-10.17,1.19.95c.41.33,1.01.33,1.41,0l1.19-.95ZM17.08,9.74l10.75,10.07c.11-.25.17-.52.17-.81V2c0-.3-.07-.59-.19-.85l-10.73,8.58ZM.19,1.15c-.12.26-.19.54-.19.85v17c0,.29.06.56.17.81l10.75-10.07L.19,1.15ZM14.61,9.97L26.83.19c-.25-.12-.53-.19-.83-.19H2c-.3,0-.58.07-.83.19l12.23,9.78c.35.28.86.28,1.21,0Z" style="fill-rule: evenodd;"/>
  </g>
</svg>