<?xml version="1.0" encoding="UTF-8"?>
<svg id="Layer_2" xmlns="http://www.w3.org/2000/svg" viewBox="0 0 20 24">
  <g id="Layer_1-2" data-name="Layer_1">
    <path d="M11,0H2C.9,0,0,.9,0,2v20c0,1.1.9,2,2,2h16c1.1,0,2-.9,2-2v-13C20,4.03,15.97,0,11,0ZM18.49,9.68v1.82c-.28-1.01-.78-1.6-1.07-1.88-1.28-1.26-3.09-1.22-4.07-1.21-.9.02-1.63.19-2.09.32.13-.46.3-1.19.32-2.09.02-.98.05-2.79-1.21-4.07-.28-.29-.87-.79-1.88-1.07h2.05c4.83-.21,8.21,3.59,7.94,8.17ZM7.81,14.53c0,.25-.04.45-.13.62s-.2.3-.34.39c-.14.09-.28.16-.42.19-.19.04-.47.06-.84.06h-.53v1.51h-.81v-4h1.3c.49,0,.81.02.96.06.23.06.42.19.58.39.15.2.23.46.23.78ZM11.82,15.33c0,.33-.04.61-.12.85-.1.29-.24.53-.43.71-.14.14-.33.24-.57.32-.18.06-.42.08-.71.08h-1.52v-4h1.48c.33,0,.59.03.76.08.23.07.44.19.6.37s.29.39.38.65.13.57.13.94ZM13.32,13.97v.95h1.67v.68h-1.67v1.7h-.81v-4h2.74v.68h-1.93ZM6.89,14.85c-.06.09-.15.15-.25.2s-.32.06-.64.06h-.44v-1.14h.39c.29,0,.48,0,.58.03.13.02.24.08.32.18s.13.21.13.36c0,.12-.03.22-.09.31ZM10.91,16.03c-.05.18-.13.31-.21.39s-.2.13-.33.17c-.1.03-.26.04-.49.04h-.6v-2.65h.36c.33,0,.55.01.66.04.15.03.28.1.37.19s.17.22.23.39.08.4.08.71-.03.55-.08.73Z"/>
  </g>
</svg>