<?xml version="1.0" encoding="UTF-8"?>
<svg id="Layer_2" xmlns="http://www.w3.org/2000/svg" viewBox="0 0 398.93 118.24">
  <g id="Layer_1-2" data-name="Layer_1">
    <g>
      <path d="M141.79,50.84h17.02v10.03h-30.02V7.52h13v43.32ZM171.55,14.06c-2.28,0-4.15-.66-5.62-1.98-1.42-1.37-2.13-3.04-2.13-5.02s.71-3.7,2.13-5.02c1.47-1.37,3.34-2.05,5.62-2.05s4.05.68,5.47,2.05c1.47,1.32,2.2,2.99,2.2,5.02s-.74,3.65-2.2,5.02c-1.42,1.32-3.24,1.98-5.47,1.98ZM178.01,18.47v42.41h-13V18.47h13ZM200.43,24.47c1.22-1.98,2.96-3.57,5.24-4.79,2.28-1.22,4.89-1.82,7.83-1.82,3.5,0,6.66.89,9.5,2.66,2.84,1.77,5.07,4.31,6.69,7.6,1.67,3.29,2.51,7.12,2.51,11.48s-.84,8.21-2.51,11.55c-1.62,3.29-3.85,5.85-6.69,7.68-2.84,1.77-6,2.66-9.5,2.66-2.99,0-5.6-.58-7.83-1.75-2.23-1.22-3.98-2.81-5.24-4.79v5.93h-13V4.64h13v19.84ZM218.97,39.6c0-3.24-.91-5.78-2.74-7.6-1.77-1.87-3.98-2.81-6.61-2.81s-4.79.94-6.61,2.81c-1.77,1.87-2.66,4.43-2.66,7.68s.89,5.8,2.66,7.68c1.82,1.87,4.03,2.81,6.61,2.81s4.79-.94,6.61-2.81c1.82-1.93,2.74-4.51,2.74-7.75ZM252.01,25.54c1.52-2.33,3.42-4.15,5.7-5.47,2.28-1.37,4.81-2.05,7.6-2.05v13.76h-3.57c-3.24,0-5.67.71-7.3,2.13-1.62,1.37-2.43,3.8-2.43,7.3v19.68h-13V18.47h13v7.07ZM268.93,39.6c0-4.36.81-8.18,2.43-11.48,1.67-3.29,3.93-5.83,6.76-7.6,2.84-1.77,6-2.66,9.5-2.66,2.99,0,5.6.61,7.83,1.82,2.28,1.22,4.03,2.81,5.24,4.79v-6h13v42.41h-13v-6c-1.27,1.98-3.04,3.57-5.32,4.79-2.23,1.22-4.84,1.82-7.83,1.82-3.45,0-6.59-.89-9.42-2.66-2.84-1.82-5.09-4.38-6.76-7.68-1.62-3.34-2.43-7.19-2.43-11.55ZM300.7,39.67c0-3.24-.91-5.8-2.74-7.68-1.77-1.87-3.95-2.81-6.54-2.81s-4.79.94-6.61,2.81c-1.77,1.82-2.66,4.36-2.66,7.6s.89,5.83,2.66,7.75c1.82,1.87,4.03,2.81,6.61,2.81s4.76-.94,6.54-2.81c1.82-1.87,2.74-4.43,2.74-7.68ZM336.1,25.54c1.52-2.33,3.42-4.15,5.7-5.47,2.28-1.37,4.81-2.05,7.6-2.05v13.76h-3.57c-3.24,0-5.68.71-7.3,2.13-1.62,1.37-2.43,3.8-2.43,7.3v19.68h-13V18.47h13v7.07ZM398.93,18.47l-26.6,62.55h-13.98l9.73-21.58-17.25-40.96h14.52l9.8,26.52,9.73-26.52h14.06Z"/>
      <path d="M143.71,89.92v2.32h-12.32v10.44h10.4v2.32h-10.4v12.88h-2.8v-27.96h15.12ZM157.87,118.2c-2.05,0-3.91-.45-5.56-1.36-1.63-.93-2.92-2.24-3.88-3.92-.93-1.71-1.4-3.69-1.4-5.96s.48-4.24,1.44-5.92c.96-1.71,2.27-3.01,3.92-3.92,1.65-.93,3.51-1.4,5.56-1.4s3.91.47,5.56,1.4c1.68.91,2.99,2.21,3.92,3.92.96,1.68,1.44,3.65,1.44,5.92s-.48,4.21-1.44,5.92c-.96,1.71-2.28,3.03-3.96,3.96-1.68.91-3.55,1.36-5.6,1.36ZM157.87,115.76c1.44,0,2.77-.32,4-.96,1.23-.67,2.21-1.65,2.96-2.96.77-1.33,1.16-2.96,1.16-4.88s-.37-3.53-1.12-4.84c-.75-1.33-1.73-2.32-2.96-2.96-1.23-.67-2.56-1-4-1s-2.77.33-4,1c-1.23.64-2.21,1.63-2.96,2.96-.72,1.31-1.08,2.92-1.08,4.84s.36,3.55,1.08,4.88c.75,1.31,1.72,2.29,2.92,2.96,1.23.64,2.56.96,4,.96ZM192.9,96.04v21.84h-2.8v-3.84c-.64,1.36-1.63,2.4-2.96,3.12-1.33.72-2.83,1.08-4.48,1.08-2.61,0-4.75-.8-6.4-2.4-1.65-1.63-2.48-3.97-2.48-7.04v-12.76h2.76v12.44c0,2.37.59,4.19,1.76,5.44,1.2,1.25,2.83,1.88,4.88,1.88s3.79-.67,5.04-2c1.25-1.33,1.88-3.29,1.88-5.88v-11.88h2.8ZM209.53,95.64c2.61,0,4.75.81,6.4,2.44,1.65,1.6,2.48,3.93,2.48,7v12.8h-2.76v-12.48c0-2.37-.6-4.19-1.8-5.44-1.17-1.25-2.79-1.88-4.84-1.88s-3.79.67-5.04,2c-1.25,1.33-1.88,3.29-1.88,5.88v11.92h-2.8v-21.84h2.8v3.72c.69-1.33,1.69-2.35,3-3.04,1.31-.72,2.79-1.08,4.44-1.08ZM223.32,106.92c0-2.24.45-4.2,1.36-5.88.91-1.71,2.15-3.01,3.72-3.92,1.6-.93,3.4-1.4,5.4-1.4s3.65.47,5.2,1.4c1.55.93,2.68,2.15,3.4,3.64v-12.48h2.8v29.6h-2.8v-4.88c-.67,1.52-1.76,2.77-3.28,3.76-1.52.96-3.31,1.44-5.36,1.44s-3.8-.47-5.4-1.4c-1.57-.93-2.81-2.25-3.72-3.96-.88-1.71-1.32-3.68-1.32-5.92ZM242.4,106.96c0-1.76-.36-3.31-1.08-4.64s-1.71-2.36-2.96-3.08c-1.23-.72-2.59-1.08-4.08-1.08s-2.93.35-4.16,1.04c-1.23.69-2.2,1.71-2.92,3.04-.69,1.31-1.04,2.87-1.04,4.68s.35,3.36,1.04,4.72c.72,1.33,1.69,2.36,2.92,3.08,1.23.69,2.61,1.04,4.16,1.04s2.85-.36,4.08-1.08c1.25-.72,2.24-1.75,2.96-3.08s1.08-2.88,1.08-4.64ZM271.36,105.84c0,.96-.03,1.69-.08,2.2h-18.12c.08,1.65.48,3.07,1.2,4.24.72,1.17,1.67,2.07,2.84,2.68,1.17.59,2.45.88,3.84.88,1.81,0,3.33-.44,4.56-1.32,1.25-.88,2.08-2.07,2.48-3.56h2.96c-.53,2.13-1.68,3.88-3.44,5.24-1.73,1.33-3.92,2-6.56,2-2.05,0-3.89-.45-5.52-1.36-1.63-.93-2.91-2.24-3.84-3.92-.91-1.71-1.36-3.69-1.36-5.96s.45-4.25,1.36-5.96c.91-1.71,2.17-3.01,3.8-3.92,1.63-.91,3.48-1.36,5.56-1.36s3.89.45,5.44,1.36c1.57.91,2.77,2.13,3.6,3.68.85,1.52,1.28,3.21,1.28,5.08ZM268.52,105.76c.03-1.63-.31-3.01-1-4.16-.67-1.15-1.59-2.01-2.76-2.6-1.17-.59-2.45-.88-3.84-.88-2.08,0-3.85.67-5.32,2-1.47,1.33-2.28,3.21-2.44,5.64h15.36ZM275.2,106.92c0-2.24.45-4.2,1.36-5.88.91-1.71,2.15-3.01,3.72-3.92,1.6-.93,3.4-1.4,5.4-1.4s3.65.47,5.2,1.4c1.55.93,2.68,2.15,3.4,3.64v-12.48h2.8v29.6h-2.8v-4.88c-.67,1.52-1.76,2.77-3.28,3.76-1.52.96-3.31,1.44-5.36,1.44s-3.8-.47-5.4-1.4c-1.57-.93-2.81-2.25-3.72-3.96-.88-1.71-1.32-3.68-1.32-5.92ZM294.28,106.96c0-1.76-.36-3.31-1.08-4.64s-1.71-2.36-2.96-3.08c-1.23-.72-2.59-1.08-4.08-1.08s-2.93.35-4.16,1.04c-1.23.69-2.2,1.71-2.92,3.04-.69,1.31-1.04,2.87-1.04,4.68s.35,3.36,1.04,4.72c.72,1.33,1.69,2.36,2.92,3.08,1.23.69,2.61,1.04,4.16,1.04s2.85-.36,4.08-1.08c1.25-.72,2.24-1.75,2.96-3.08s1.08-2.88,1.08-4.64ZM312.49,91.72v-2.52h6.8v28.68h-2.84v-26.16h-3.96ZM329.25,110.24c.29,1.73.96,3.07,2,4s2.47,1.4,4.28,1.4c2.51,0,4.36-.97,5.56-2.92,1.23-1.97,1.79-5.23,1.68-9.76-.51,1.47-1.48,2.63-2.92,3.48-1.41.83-3.04,1.24-4.88,1.24-2.8,0-5.05-.84-6.76-2.52-1.68-1.68-2.52-4.01-2.52-7,0-1.79.35-3.4,1.04-4.84.69-1.44,1.75-2.57,3.16-3.4,1.41-.83,3.15-1.24,5.2-1.24,3.79,0,6.43,1.24,7.92,3.72,1.49,2.45,2.24,5.99,2.24,10.6,0,4.99-.75,8.73-2.24,11.24-1.47,2.51-4,3.76-7.6,3.76-2.64,0-4.69-.71-6.16-2.12-1.47-1.44-2.33-3.32-2.6-5.64h2.6ZM335.41,105.28c1.25,0,2.4-.25,3.44-.76,1.07-.53,1.92-1.31,2.56-2.32.64-1.01.96-2.23.96-3.64,0-2.19-.63-3.99-1.88-5.4-1.23-1.41-3-2.12-5.32-2.12-2.05,0-3.71.64-4.96,1.92-1.23,1.28-1.84,2.99-1.84,5.12,0,2.24.61,4,1.84,5.28,1.23,1.28,2.96,1.92,5.2,1.92ZM354.25,110.24c.29,1.73.96,3.07,2,4s2.47,1.4,4.28,1.4c2.51,0,4.36-.97,5.56-2.92,1.23-1.97,1.79-5.23,1.68-9.76-.51,1.47-1.48,2.63-2.92,3.48-1.41.83-3.04,1.24-4.88,1.24-2.8,0-5.05-.84-6.76-2.52-1.68-1.68-2.52-4.01-2.52-7,0-1.79.35-3.4,1.04-4.84.69-1.44,1.75-2.57,3.16-3.4,1.41-.83,3.15-1.24,5.2-1.24,3.79,0,6.43,1.24,7.92,3.72,1.49,2.45,2.24,5.99,2.24,10.6,0,4.99-.75,8.73-2.24,11.24-1.47,2.51-4,3.76-7.6,3.76-2.64,0-4.69-.71-6.16-2.12-1.47-1.44-2.33-3.32-2.6-5.64h2.6ZM360.41,105.28c1.25,0,2.4-.25,3.44-.76,1.07-.53,1.92-1.31,2.56-2.32.64-1.01.96-2.23.96-3.64,0-2.19-.63-3.99-1.88-5.4-1.23-1.41-3-2.12-5.32-2.12-2.05,0-3.71.64-4.96,1.92-1.23,1.28-1.84,2.99-1.84,5.12,0,2.24.61,4,1.84,5.28,1.23,1.28,2.96,1.92,5.2,1.92ZM393.61,91.6h-14.64v10.24c.67-.93,1.64-1.69,2.92-2.28,1.28-.61,2.67-.92,4.16-.92,2.19,0,3.97.45,5.36,1.36,1.39.88,2.39,2.04,3,3.48.61,1.41.92,2.93.92,4.56,0,1.87-.36,3.56-1.08,5.08-.69,1.49-1.77,2.68-3.24,3.56-1.44.88-3.24,1.32-5.4,1.32-2.75,0-4.97-.71-6.68-2.12-1.71-1.44-2.75-3.37-3.12-5.8h2.76c.35,1.76,1.15,3.12,2.4,4.08,1.25.96,2.8,1.44,4.64,1.44,2.32,0,4.07-.68,5.24-2.04,1.2-1.39,1.8-3.21,1.8-5.48s-.6-3.93-1.8-5.16c-1.2-1.25-2.92-1.88-5.16-1.88-1.55,0-2.91.36-4.08,1.08-1.17.72-2.04,1.69-2.6,2.92h-2.64v-15.88h17.24v2.44Z"/>
      <path d="M2.48,49.35c-.01.07-.03.14-.05.21.02-.07.04-.14.05-.21ZM2.5,49.27c0,.13.02.57.17,1.17.32,1.21,1.15,2.3,2.29,2.99l44.42,27.04c-.07-.44-.11-.89-.11-1.35,0-4.35,1.88-7.36,6.3-10.05l42.28-25.75c.56-.34.62-.9.62-1.13s-.06-.79-.62-1.13L52.94,13.71,7.56,41.34c-3.69,2.25-5.05,4.36-5.05,7.78,0,.05,0,.1,0,.14ZM55.08,86.15c-.93,0-1.83-.25-2.66-.76-.17-.11-.33-.21-.48-.34L3.71,55.7c-1.72-1.04-2.94-2.66-3.44-4.56-.25-.95-.3-1.59-.25-2.03,0-4.35,1.89-7.35,6.3-10.04L52.32,11.05c.38-.23.86-.23,1.24,0l45.54,27.73c1.17.71,1.86,1.98,1.86,3.4s-.69,2.7-1.86,3.4l-42.28,25.75c-3.69,2.25-5.06,4.36-5.06,7.78,0,1.55.61,2.98,1.58,3.77.02.02.05.04.07.05.09.06.17.12.26.18.99.61,2.16.53,3.39-.22l42.77-26.05-3.47-2.39c-.57-.39-.73-1.21-.36-1.82.38-.61,1.15-.78,1.73-.38l5.17,3.55c.36.25.58.68.57,1.14-.01.46-.25.88-.62,1.1l-44.52,27.11c-1.07.66-2.17.98-3.22.98Z" style="fill: #86a177;"/>
      <path d="M75.89,102.69c-.43,0-.85-.23-1.08-.66-.34-.62-.14-1.43.46-1.79l24.55-14.95-3.47-2.38c-.57-.4-.73-1.21-.36-1.82.38-.61,1.15-.78,1.73-.38l5.17,3.55c.36.25.58.68.57,1.14-.01.46-.25.87-.62,1.1l-26.3,16.02c-.2.12-.41.18-.62.18Z" style="fill: #86a177;"/>
      <path d="M2.48,77.8c-.01.07-.03.14-.05.21.02-.07.04-.14.05-.21ZM52.63,113.72c-.21,0-.43-.06-.62-.18L3.71,84.15c-1.72-1.05-2.94-2.67-3.44-4.57-.25-.95-.3-1.59-.25-2.03,0-4.34,1.88-7.34,6.27-10.02l2.09-1.43c.58-.39,1.35-.22,1.73.38.37.61.21,1.43-.37,1.82l-2.12,1.45s-.04.02-.06.04c-3.69,2.25-5.05,4.36-5.05,7.78,0,.05,0,.09,0,.14,0,.12.02.57.17,1.17.32,1.21,1.15,2.3,2.29,2.99l48.3,29.4c.59.36.8,1.17.45,1.79-.23.43-.65.66-1.07.66Z" style="fill: #86a177;"/>
      <path d="M67.39,118.02c-.21,0-.43-.06-.61-.17-.39-.23-.63-.67-.63-1.14v-7.82l-7.85,4.72c-2.01,1.22-4.1,1.3-5.88.22-1.94-1.19-3.15-3.59-3.15-6.27,0-4.36,1.88-7.36,6.3-10.06l42.28-25.75c.56-.34.62-.9.62-1.12s-.06-.79-.62-1.13c-.59-.36-.8-1.17-.45-1.8.34-.62,1.11-.84,1.7-.48,1.17.71,1.86,1.98,1.86,3.41s-.69,2.69-1.86,3.4l-42.28,25.75c-3.69,2.24-5.06,4.35-5.06,7.78,0,1.72.75,3.29,1.91,4,.99.6,2.16.53,3.39-.22l9.72-5.84c.39-.23.86-.23,1.24,0,.38.23.62.67.62,1.14v7.76l6.01-3.8v-9.21c0-1.82-.93-3.52-2.43-4.42-.6-.36-.8-1.16-.46-1.79.34-.63,1.1-.85,1.7-.49,2.28,1.37,3.7,3.94,3.7,6.7v9.96c0,.47-.23.89-.61,1.12l-8.5,5.37c-.2.12-.42.19-.64.19Z" style="fill: #86a177;"/>
      <path d="M45.17,63.89c-.2,0-.41-.05-.6-.17L6.34,41.36c-.6-.35-.82-1.15-.48-1.79.33-.64,1.09-.87,1.69-.52l38.22,22.37c.61.35.82,1.15.49,1.79-.23.43-.65.68-1.09.68Z" style="fill: #86a177;"/>
    </g>
  </g>
</svg>