<?xml version="1.0" encoding="UTF-8"?>
<svg id="Layer_2" xmlns="http://www.w3.org/2000/svg" xmlns:xlink="http://www.w3.org/1999/xlink" viewBox="0 0 1022.84 813.16">
  <defs>
    <linearGradient id="linear-gradient" x1="635.23" y1="268.68" x2="635.23" y2="770.56" gradientTransform="translate(-88.58 770.56) scale(1 -1)" gradientUnits="userSpaceOnUse">
      <stop offset="0" stop-color="gray" stop-opacity=".25"/>
      <stop offset=".54" stop-color="gray" stop-opacity=".12"/>
      <stop offset="1" stop-color="gray" stop-opacity=".1"/>
    </linearGradient>
  </defs>
  <g id="_x32_cf41747-0c0c-4d70-aad4-093c093adad4">
    <g>
      <path d="M599.86,137.41c-64.72-2.25-126.37-23.14-185.23-46s-117.16-48.19-180.33-60.3c-40.63-7.79-87.1-8.89-119.83,12.89-31.51,21-41.69,57.15-47.16,90.73-4.12,25.26-6.54,51.84,4.75,75.49,7.83,16.42,21.74,30.22,31.35,46,33.47,54.72,9.82,122.2-26.45,175.63-17,25.07-36.75,49-49.87,75.66s-19.2,57.25-7.72,84.47c11.39,27,38.52,47.24,67.9,61.49,59.69,28.95,130,37.23,198.61,41.92,151.83,10.39,304.46,5.89,456.69,1.39,56.34-1.67,112.92-3.36,168.34-12.07,30.78-4.84,62.55-12.51,84.9-31.05,28.36-23.53,35.39-63.38,16.39-92.88-31.89-49.49-120-61.78-142.32-114.9-12.26-29.23.34-61.79,18.16-88.91,38.24-58.16,102.33-109.19,105.71-175.67,2.32-45.67-28.5-91.39-76.14-113-49.93-22.73-119.19-19.85-156.01,17.64-37.94,38.63-104.6,53.45-161.74,51.47Z" style="fill: #aed697; isolation: isolate; opacity: .1;"/>
      <polygon points="435.45 690.49 93.17 688.82 59.16 609.05 179.42 600.32 158.46 512.86 396.32 482.03 168.55 402.85 188.67 398.07 554.92 457.82 534.75 594.31 505.92 669.32 435.45 690.49" style="fill: #aed697;"/>
      <path d="M98.42,655.41s21-3.36,33.6,11.48c0,0-9.24,7.28-29.12-2.8l-4.48-8.68Z" style="fill: #aed697;"/>
      <path d="M96.22,655.08s-13.4,16.49-6.8,34.85c0,0,10.92-4.37,12.11-26.63l-5.31-8.22Z" style="fill: #aed697;"/>
      <path d="M84.18,627.97s8.4-15.41,42,6.16c0,0-4.48,10.36-19.32,9.52s-18.76-7.56-22.68-15.68Z" style="fill: #aed697;"/>
      <path d="M82.01,626.86s-17.43-2-19.12,37.9c0,0,11.05,2.29,18.9-10.33s4.63-19.7.22-27.57Z" style="fill: #aed697;"/>
      <path d="M71.86,595.03s9.8-27.16,45.36-7.84c0,0-8.12,24.92-41.72,17.08l-3.64-9.24Z" style="fill: #aed697;"/>
      <path d="M60.94,554.43s18.48-27.44,51.24-2c0,0-11.48,25.76-48.44,11.76l-2.8-9.76Z" style="fill: #aed697;"/>
      <path d="M57.02,515.79s21.56-25.21,54,0c0,0-20.44,22.12-54,6.44v-6.44Z" style="fill: #aed697;"/>
      <path d="M53.66,478.26s21.84-26.32,52.92-1.4c0,0-24.64,23.24-52.92,7.56v-6.16Z" style="fill: #aed697;"/>
      <path d="M55.62,444.94s23-33.88,52.08-10.92c0,0-24.64,29.12-52.08,17.36v-6.44Z" style="fill: #aed697;"/>
      <path d="M60.94,406.02s24.36-33.6,52.64-7.84c0,0-28.84,29.12-52.64,14v-6.16Z" style="fill: #aed697;"/>
      <path d="M69.06,371.23s28.84-31.58,54-19c0,0-30.05,33.54-55.26,27.38l1.26-8.38Z" style="fill: #aed697;"/>
      <path d="M79.14,338.25s33.28-38.68,52.64-25.76c0,0-24.52,30-55,33l2.36-7.24Z" style="fill: #aed697;"/>
      <path d="M93.69,300s29.13-31.58,50.41-23.74c0,0-24.92,32.76-54.32,33.6l3.91-9.86Z" style="fill: #aed697;"/>
      <path d="M106.86,264.22s32.2-30.24,46.2-24.92c0,0-23.24,33.6-47.6,31.64l1.4-6.72Z" style="fill: #aed697;"/>
      <path d="M119.74,231.18s27.72-36.13,42.85-33.33c0,0-16.81,32.21-42.85,37v-3.67Z" style="fill: #aed697;"/>
      <path d="M133.72,186.63s24.5-27.69,37.74-27.63c0,0-19.34,37-38.75,36.66l1.01-9.03Z" style="fill: #aed697;"/>
      <path d="M142,156.97l23.67-57.68s1.18,52.14-26.68,68.38l3.01-10.7Z" style="fill: #aed697;"/>
      <path d="M151.61,93.36s3.92-48.17,1.4-52.09c0,0,16.92,40.05-1.56,73.37l.16-21.28Z" style="fill: #aed697;"/>
      <path d="M70.94,594.39s-24.54-15.21-40.43,22c0,0,21.84,14.5,43.32-12.51l-2.89-9.49Z" style="fill: #aed697;"/>
      <path d="M60.15,552.88s-30.1-13.73-44.7,25.12c0,0,23.25,16,47.44-15.3l-2.74-9.82Z" style="fill: #aed697;"/>
      <path d="M55.62,518.1s-21.56-25.21-54,0c0,0,20.44,22.12,54,6.44v-6.44Z" style="fill: #aed697;"/>
      <path d="M52.92,478.26s-21.84-26.32-52.92-1.4c0,0,24.64,23.24,52.92,7.56v-6.16Z" style="fill: #aed697;"/>
      <path d="M55.62,445.9s-15.32-37.95-48.62-21.63c0,0,18,33.65,47.26,27.93l1.36-6.3Z" style="fill: #aed697;"/>
      <path d="M62.87,405.83s-15.23-38.61-49-20.71c0,0,20.68,35.39,47.5,26.67l1.5-5.96Z" style="fill: #aed697;"/>
      <path d="M72.31,371.42s-6-42.33-34-46.12c0,0,5.94,44.64,30.23,53.75l3.77-7.63Z" style="fill: #aed697;"/>
      <path d="M79.85,338.33s-2.34-51-25.49-52.78c0,0,.78,38.71,22.88,60l2.61-7.22Z" style="fill: #aed697;"/>
      <path d="M96.09,298.57s-6.9-42.41-29-47.59c0,0,2.74,41.07,26.81,58l2.19-10.41Z" style="fill: #aed697;"/>
      <path d="M109.48,264.57s-.23-44.18-13.73-50.67c0,0-8.37,40,9.82,56.31l3.91-5.64Z" style="fill: #aed697;"/>
      <path d="M120.77,230.68s-1.89-45.49-15.87-51.9c0,0-4.78,36,13.78,54.88l2.09-2.98Z" style="fill: #aed697;"/>
      <path d="M135.67,190.26s-.08-37-10.06-45.68c0,0-9.92,40.53,4.85,53.12l5.21-7.44Z" style="fill: #aed697;"/>
      <path d="M140.83,155.15l-9.71-61.58s-13.19,50.46,10.17,72.7l-.46-11.12Z" style="fill: #aed697;"/>
      <path d="M142.72,93.94s-24.92-41.4-24.41-46c0,0,2.65,43.39,34,65l-9.59-19Z" style="fill: #aed697;"/>
      <path d="M145.64,81.71s-23.52-58.8-34.16-63.56c0,0,33.6,17.08,36.12,61.88l-1.96,1.68Z" style="fill: #aed697;"/>
      <path d="M132.59,196.01l-1.61-.49c19.85-64.73,24.8-106,13.95-116.35l1.15-1.22c11.51,10.92,6.84,51.74-13.49,118.06Z" style="fill: #50534b;"/>
      <path d="M77.93,347.57l-2.38-.85c2.11-5.93,4.38-11.95,6.76-17.88,20.72-51.64,38.36-99.68,49.67-136.56l2.07-1c-11.33,36.95-28.66,86.83-49.4,138.54-2.37,5.82-4.63,11.81-6.72,17.75Z" style="fill: #50534b;"/>
      <path d="M128.01,703.85c-.32-.35-32.49-36.58-54.92-98.43-13.14-36.21-20.46-74.28-21.67-112.78-1.54-48.13,8.56-101.87,25.86-150.69l1.88,2.2c-38.84,109.57-23.41,203.46-2.94,260,22.19,61.29,54,97.12,54.31,97.48l-2.52,2.22Z" style="fill: #50534b;"/>
      <path d="M630.73,626.93s-22.67,27.67-4.67,69.5l-181,78.5-17.37,3.64-8-35,5.35-44.17v-24.14l205.69-48.33Z" style="fill: #dbdbd9;"/>
      <polygon points="59.16 609.05 309.68 563.38 641.63 616.26 435.45 690.49 59.16 609.05" style="fill: #aed697;"/>
      <polygon points="59.16 609.05 309.68 563.38 641.63 616.26 435.45 690.49 59.16 609.05" style="fill: #aed697;"/>
      <path d="M59.16,609.04s-23.43,44.39,3.57,85.39l371.5,80.5s-23.06-35.36,1.19-84.44l-376.26-81.45Z" style="fill: #aed697;"/>
      <path d="M59.16,609.04s-23.43,44.39,3.57,85.39l371.5,80.5s-23.06-35.36,1.19-84.44l-376.26-81.45Z" style="isolation: isolate; opacity: .1;"/>
      <path d="M70.23,624.43s-13.39,32.48,0,53.5" style="isolation: isolate; opacity: .1;"/>
      <path d="M434.23,774.93l207.4-88.5s11.6,2.5,4.1,11-207.5,86-207.5,86l-375.5-89,371.5,80.5Z" style="fill: #aed697;"/>
      <path d="M434.23,774.93l207.4-88.5s11.6,2.5,4.1,11-207.5,86-207.5,86l-375.5-89,371.5,80.5Z" style="isolation: isolate; opacity: .1;"/>
      <path d="M417.23,699.43s-20,24,0,60" style="isolation: isolate; opacity: .1;"/>
      <rect x="422.08" y="713.97" width="94.57" height="1" transform="translate(-201.99 185.27) rotate(-18.45)" style="isolation: isolate; opacity: .1;"/>
      <rect x="420.74" y="716.49" width="115.23" height="1" transform="translate(-223.61 216.84) rotate(-20.82)" style="isolation: isolate; opacity: .1;"/>
      <rect x="420.13" y="721.16" width="133.56" height="1" transform="translate(-237.09 238.23) rotate(-22.26)" style="isolation: isolate; opacity: .1;"/>
      <rect x="419.75" y="723.17" width="153.74" height="1" transform="translate(-253.88 268.61) rotate(-24.31)" style="isolation: isolate; opacity: .1;"/>
      <rect x="420.64" y="725.22" width="168.15" height="1" transform="translate(-248.41 262.89) rotate(-23.61)" style="isolation: isolate; opacity: .1;"/>
      <rect x="421.75" y="725.84" width="201.22" height="1" transform="translate(-245.18 266.66) rotate(-23.36)" style="isolation: isolate; opacity: .1;"/>
      <polygon points="152.23 613.93 328.23 576.93 435.45 597.43 291.23 643.93 152.23 613.93" style="fill: #fff; isolation: isolate; opacity: .3;"/>
      <path d="M641.63,616.26s9.1,3.67,3.76,9.34-209.97,64.89-209.97,64.89l206.21-74.23Z" style="fill: #aed697;"/>
      <path d="M730.02,530.75s-22.66,27.66-4.66,69.5l-181,78.5-17.37,3.66-8-35,5.43-44.16v-24.17l205.6-48.33Z" style="fill: #dbdbd9;"/>
      <polygon points="158.46 512.86 408.97 467.2 740.93 520.08 534.75 594.31 158.46 512.86" style="fill: #636853;"/>
      <path d="M158.42,512.86s-23.44,44.39,3.56,85.39l371.5,80.5s-23.05-35.39,1.23-84.45l-376.29-81.44Z" style="fill: #636853;"/>
      <path d="M158.42,512.86s-23.44,44.39,3.56,85.39l371.5,80.5s-23.05-35.39,1.23-84.45l-117.48-25.43-258.81-56.01Z" style="isolation: isolate; opacity: .1;"/>
      <path d="M169.52,528.25s-13.38,32.47,0,53.5" style="isolation: isolate; opacity: .1;"/>
      <path d="M533.52,678.75l207.41-88.5s11.59,2.5,4.09,11-207.5,86-207.5,86l-375.5-89,371.5,80.5Z" style="fill: #636853;"/>
      <path d="M533.52,678.75l207.41-88.5s11.59,2.5,4.09,11-207.5,86-207.5,86l-375.5-89,371.5,80.5Z" style="isolation: isolate; opacity: .1;"/>
      <path d="M516.52,603.25s-20,24,0,60" style="isolation: isolate; opacity: .1;"/>
      <rect x="521.37" y="617.8" width="94.57" height="1" transform="translate(-166.45 211.75) rotate(-18.45)" style="isolation: isolate; opacity: .1;"/>
      <rect x="520.05" y="620.32" width="115.23" height="1" transform="translate(-182.94 245.86) rotate(-20.82)" style="isolation: isolate; opacity: .1;"/>
      <rect x="519.43" y="624.98" width="133.56" height="1" transform="translate(-193.25 268.68) rotate(-22.26)" style="isolation: isolate; opacity: .1;"/>
      <rect x="519.06" y="626.99" width="153.74" height="1" transform="translate(-205.48 300.97) rotate(-24.31)" style="isolation: isolate; opacity: .1;"/>
      <rect x="519.93" y="629.03" width="168.15" height="1" transform="translate(-201.57 294.6) rotate(-23.61)" style="isolation: isolate; opacity: .1;"/>
      <rect x="521.05" y="629.65" width="201.22" height="1" transform="translate(-198.9 298.14) rotate(-23.36)" style="isolation: isolate; opacity: .1;"/>
      <polygon points="251.53 517.75 427.53 480.75 534.75 501.25 390.53 547.75 251.53 517.75" style="fill: #fff; isolation: isolate; opacity: .45;"/>
      <path d="M740.93,520.08s9.09,3.67,3.76,9.33-209.94,64.89-209.94,64.89l206.18-74.22Z" style="fill: #636853;"/>
      <path d="M739.42,420.72s-22.67,49.67-4.67,91.5l-181,56.5-17.33,3.67-8-35,5.35-44.17v-24.17l205.65-48.33Z" style="fill: #dbdbd9;"/>
      <polygon points="167.89 402.84 418.41 357.17 750.37 410.05 544.18 484.28 167.89 402.84" style="fill: #aed697;"/>
      <path d="M167.89,402.83s-23.47,44.39,3.53,85.39l371.5,80.5s-23.06-35.39,1.22-84.44l-376.25-81.45Z" style="fill: #aed697;"/>
      <path d="M167.89,402.83s-23.47,44.39,3.53,85.39l371.5,80.5s-23.06-35.39,1.22-84.44l-376.25-81.45Z" style="isolation: isolate; opacity: .1;"/>
      <path d="M178.96,418.22s-13.39,32.48,0,53.5" style="isolation: isolate; opacity: .1;"/>
      <path d="M542.96,568.72l207.4-66.5s11.6,2.5,4.1,11-207.5,64-207.5,64l-375.5-89,371.5,80.5Z" style="fill: #aed697;"/>
      <path d="M542.96,568.72l207.4-66.5s11.6,2.5,4.1,11-207.5,64-207.5,64l-375.5-89,371.5,80.5Z" style="isolation: isolate; opacity: .1;"/>
      <path d="M525.96,493.22s-20,24,0,60" style="isolation: isolate; opacity: .1;"/>
      <rect x="530.82" y="507.76" width="94.57" height="1" transform="translate(-131.14 209.08) rotate(-18.45)" style="isolation: isolate; opacity: .1;"/>
      <rect x="529.48" y="510.29" width="115.23" height="1" transform="translate(-143.22 242.03) rotate(-20.82)" style="isolation: isolate; opacity: .1;"/>
      <rect x="528.86" y="514.95" width="133.56" height="1" transform="translate(-150.87 264.05) rotate(-22.26)" style="isolation: isolate; opacity: .1;"/>
      <rect x="528.5" y="516.96" width="153.74" height="1" transform="translate(-159.35 295.1) rotate(-24.31)" style="isolation: isolate; opacity: .1;"/>
      <rect x="529.37" y="519" width="168.15" height="1" transform="translate(-156.72 289.18) rotate(-23.61)" style="isolation: isolate; opacity: .1;"/>
      <rect x="530.49" y="519.63" width="201.22" height="1" transform="translate(-154.51 292.87) rotate(-23.36)" style="isolation: isolate; opacity: .1;"/>
      <polygon points="260.96 407.72 436.96 370.72 544.18 391.22 399.96 437.72 260.96 407.72" style="fill: #fff; isolation: isolate; opacity: .3;"/>
      <path d="M750.36,410.05s9.1,3.67,3.76,9.34-209.94,64.89-209.94,64.89l206.18-74.23Z" style="fill: #aed697;"/>
      <path d="M310.42,106.49s-38-2.29-33.56,24.37c0,0-.89,4.71,3.38,6.85,0,0,.07-2,3.9-1.31,1.37.23,2.76.3,4.14.2,1.86-.13,3.64-.86,5.05-2.08h0s10.69-4.42,14.85-21.9c0,0,3.08-3.81,3-4.79l-6.44,2.74s2.19,4.63.47,8.48c0,0-.21-8.31-1.45-8.12-.25,0-3.33,1.61-3.33,1.61,0,0,3.77,8.07.92,13.93,0,0,1.08-9.94-2.1-13.35l-4.52,2.64s4.41,8.33,1.42,15.13c0,0,.77-10.43-2.37-14.49l-4.1,3.2s4.15,8.21,1.62,13.85c0,0-.33-12.14-2.5-13.06,0,0-3.59,3.16-4.13,4.46,0,0,2.84,6,1.07,9.11,0,0-1.07-8.09-2-8.13,0,0-3.57,5.36-3.94,9,.17-3.39,1.23-6.68,3.07-9.54-2.06.39-3.96,1.37-5.46,2.83,0,0,.55-3.79,6.35-4.12,0,0,2.95-4.07,3.74-4.31,0,0-5.77-.49-9.26,1.06,0,0,3.08-3.57,10.31-2l4-3.3s-7.58-1-10.8.11c0,0,3.71-3.16,11.89-.86l4.41-2.63s-6.47-1.39-10.32-.89c0,0,4.06-2.19,11.61.18l3.14-1.41s-4.73-.93-6.12-1.08-1.46-.53-1.46-.53c3-.49,6.08-.15,8.9,1,0,0,6.75-2.43,6.62-2.85Z" style="fill: #aed697;"/>
      <path d="M845.02,216.07s-38-2.29-33.56,24.37c0,0-.89,4.71,3.38,6.85,0,0,.07-2,3.9-1.31,1.37.23,2.76.3,4.14.2,1.85-.14,3.6-.87,5-2.08h0s10.7-4.42,14.85-21.9c0,0,3.08-3.81,3-4.79l-6.42,2.74s2.19,4.63.47,8.48c0,0-.21-8.31-1.44-8.12-.25,0-3.34,1.61-3.34,1.61,0,0,3.77,8.07.93,13.93,0,0,1.08-9.94-2.11-13.35l-4.52,2.64s4.41,8.33,1.42,15.13c0,0,.77-10.43-2.37-14.49l-4.09,3.2s4.14,8.21,1.61,13.85c0,0-.33-12.14-2.5-13.06,0,0-3.58,3.16-4.13,4.46,0,0,2.84,6,1.08,9.11,0,0-1.08-8.09-2-8.13,0,0-3.57,5.36-3.94,9,.17-3.39,1.24-6.68,3.08-9.54-2.06.39-3.96,1.37-5.47,2.83,0,0,.56-3.79,6.35-4.12,0,0,2.95-4.07,3.74-4.32,0,0-5.76-.48-9.26,1.07,0,0,3.08-3.57,10.31-2l4-3.3s-7.59-1-10.8.11c0,0,3.7-3.16,11.89-.86l4.4-2.63s-6.47-1.39-10.32-.89c0,0,4.06-2.19,11.61.18l3.15-1.41s-4.74-.93-6.13-1.08-1.46-.53-1.46-.53c3-.5,6.08-.15,8.9,1,0,0,6.77-2.43,6.65-2.85Z" style="fill: #aed697; isolation: isolate; opacity: .1;"/>
      <path d="M374.42,271.19s-16.56-34.33-37.64-17.41c0,0-4.55,1.52-4.33,6.29,0,0,1.75-.91,3,2.77.47,1.3,1.08,2.54,1.84,3.7,1.02,1.57,2.53,2.76,4.29,3.4h0s9.07,7.18,26.36,2.28c0,0,4.83.83,5.62.25l-5.52-4.27s-3,4.17-7.18,4.54c0,0,7.16-4.23,6.39-5.21-.16-.2-3-2.13-3-2.13,0,0-5.21,7.23-11.71,7.6,0,0,9.2-3.9,10.62-8.35l-4.5-2.66s-5.13,7.92-12.52,8.62c0,0,9.48-4.41,11.49-9.13l-4.78-2s-5.15,7.62-11.31,8.17c0,0,10.44-6.21,10.18-8.56,0,0-4.51-1.58-5.91-1.43,0,0-3.82,5.39-7.42,5.39,0,0,6.53-4.89,6.13-5.68,0,0-6.42-.5-9.8,1,3.05-1.51,6.43-2.2,9.83-2-1.35-1.61-3.13-2.78-5.14-3.39,0,0,3.58-1.36,6.69,3.53,0,0,5,.59,5.59,1.16,0,0-2.39-5.26-5.44-7.55,0,0,4.62.93,6.73,8l4.85,1.92s-2.79-7.12-5.36-9.37c0,0,4.56,1.69,6.55,10l4.44,2.56s-1.93-6.33-4.25-9.44c0,0,3.89,2.48,5.5,10.22l2.77,2.06s-1.5-4.59-2-5.87-.25-1.54-.25-1.54c1.9,2.37,3.11,5.23,3.48,8.25,0,0,5.35,4.58,5.71,4.28Z" style="fill: #aed697; isolation: isolate; opacity: .1;"/>
      <path d="M758.2,167.57s-16.55-34.33-37.64-17.41c0,0-4.54,1.52-4.33,6.29,0,0,1.76-.9,3,2.77.47,1.31,1.09,2.55,1.85,3.71,1.02,1.57,2.52,2.76,4.28,3.39h0s9.08,7.18,26.36,2.29c0,0,4.83.82,5.63.24l-5.49-4.28s-3,4.18-7.17,4.55c0,0,7.15-4.24,6.38-5.22-.16-.2-3-2.13-3-2.13,0,0-5.2,7.23-11.71,7.6,0,0,9.21-3.9,10.63-8.34l-4.57-2.64s-5.12,7.91-12.52,8.62c0,0,9.48-4.42,11.5-9.14l-4.79-2s-5.15,7.63-11.3,8.17c0,0,10.43-6.21,10.17-8.55,0,0-4.5-1.59-5.9-1.43,0,0-3.82,5.38-7.43,5.38,0,0,6.54-4.89,6.14-5.68,0,0-6.42-.5-9.81,1,3.05-1.51,6.43-2.2,9.83-2-1.34-1.61-3.13-2.79-5.13-3.39,0,0,3.58-1.36,6.69,3.53,0,0,5,.6,5.59,1.17,0,0-2.39-5.27-5.45-7.56,0,0,4.62.94,6.73,8.05l4.86,1.92s-2.79-7.13-5.36-9.38c0,0,4.56,1.69,6.54,10l4.45,2.56s-1.94-6.32-4.26-9.44c0,0,3.9,2.48,5.5,10.22l2.77,2.06s-1.49-4.59-2-5.87-.25-1.53-.25-1.53c1.9,2.38,3.1,5.23,3.47,8.25,0,0,5.43,4.54,5.74,4.22Z" style="fill: #aed697; isolation: isolate; opacity: .1;"/>
      <path d="M811.09,337.38s-16.55-34.34-37.67-17.42c0,0-4.54,1.52-4.33,6.29,0,0,1.76-.9,3,2.77.46,1.31,1.08,2.55,1.84,3.71,1.02,1.57,2.52,2.76,4.28,3.39h0s9.08,7.19,26.37,2.29c0,0,4.82.83,5.62.24l-5.52-4.27s-3,4.18-7.18,4.55c0,0,7.15-4.24,6.38-5.22-.16-.2-3-2.13-3-2.13,0,0-5.2,7.23-11.71,7.61,0,0,9.21-3.91,10.63-8.35l-4.51-2.66s-5.12,7.92-12.52,8.62c0,0,9.48-4.42,11.5-9.14l-4.79-2s-5.15,7.62-11.3,8.17c0,0,10.44-6.21,10.18-8.56,0,0-4.51-1.59-5.91-1.43,0,0-3.82,5.38-7.43,5.38,0,0,6.54-4.89,6.14-5.68,0,0-6.42-.5-9.81,1,3.05-1.51,6.44-2.2,9.84-2-1.34-1.61-3.13-2.79-5.14-3.39,0,0,3.58-1.37,6.69,3.53,0,0,5,.59,5.59,1.16,0,0-2.39-5.26-5.44-7.56,0,0,4.62.94,6.73,8.05l4.85,1.92s-2.79-7.13-5.36-9.37c0,0,4.56,1.68,6.54,10l4.45,2.55s-1.94-6.32-4.26-9.44c0,0,3.9,2.48,5.51,10.23l2.77,2s-1.5-4.59-2-5.87-.25-1.53-.25-1.53c1.9,2.37,3.1,5.23,3.47,8.25,0,0,5.44,4.61,5.75,4.31Z" style="fill: #aed697; isolation: isolate; opacity: .1;"/>
      <ellipse cx="201.95" cy="781.58" rx="22.99" ry="2.57" style="fill: #aed697; isolation: isolate; opacity: .1;"/>
      <ellipse cx="51.24" cy="737.9" rx="22.99" ry="2.57" style="fill: #aed697; isolation: isolate; opacity: .1;"/>
      <ellipse cx="316.83" cy="810.59" rx="22.99" ry="2.57" style="fill: #aed697; isolation: isolate; opacity: .1;"/>
      <ellipse cx="905.53" cy="747.4" rx="22.99" ry="2.57" style="fill: #aed697; isolation: isolate; opacity: .1;"/>
      <ellipse cx="714.22" cy="734.93" rx="22.99" ry="2.57" style="fill: #aed697; isolation: isolate; opacity: .1;"/>
      <ellipse cx="590.46" cy="793.65" rx="27.19" ry="4.67" style="fill: #aed697; isolation: isolate; opacity: .1;"/>
      <path d="M602.59,746.71s-37.86,19.56-18.3,42.6c0,0,1.84,5,7.16,4.65,0,0-1.06-1.94,3-3.49,1.44-.56,2.82-1.29,4.09-2.17,1.72-1.19,3-2.91,3.66-4.89h0s7.74-10.36,1.74-29.53c0,0,.78-5.42.1-6.3l-4.6,6.31s4.75,3.19,5.3,7.88c0,0-5-7.87-6-7-.22.18-2.28,3.45-2.28,3.45,0,0,8.24,5.59,8.85,12.85,0,0-4.64-10.17-9.65-11.62l-2.87,5.12s9,5.48,10,13.72c0,0-5.23-10.45-10.57-12.56l-2.11,5.41s8.68,5.52,9.48,12.38c0,0-7.26-11.47-9.87-11.11,0,0-1.64,5.08-1.42,6.65,0,0,6.13,4.1,6.24,8.13,0,0-5.66-7.15-6.53-6.68,0,0-.36,7.19,1.38,10.93,0,0-3-5.34-2.51-10.93-1.75,1.55-3.02,3.58-3.63,5.84,0,0-1.63-3.95,3.74-7.59,0,0,.51-5.59,1.13-6.28,0,0-5.81,2.84-8.28,6.32,0,0,.91-5.19,8.79-7.77l2-5.48s-7.88,3.34-10.31,6.28c0,0,1.75-5.15,10.93-7.62l2.72-5s-7,2.36-10.42,5c0,0,2.65-4.43,11.26-6.47l2.21-3.15s-5.08,1.81-6.5,2.46-1.7.33-1.7.33c2.6-2.2,5.75-3.63,9.11-4.14,0,0,5.01-6.19,4.66-6.53Z" style="fill: #aed697;"/>
      <path d="M714.96,377.28c-6.54-17.77-42.54-19.44-58.16-14.91-11.1,3.23-34.5,6.87-47,8.7l-.81-.77c1.62-.48,1.66-1.66,1.46-3.41-.12-2.31-.08-4.62.1-6.92,7.66,2.38,14.48-3.25,14.48-3.25h0c9-4,6.58-21.12,8.3-25.8,1.29-3.5,2.68-24.12,3.3-34.4h.13l.07-3.45c.09-1.49.13-2.36.13-2.36,0,0,.88-25.14,2.6-30.23,1.6-4.68,2.9-28.26,3.1-32v-.49l-.13-2.18c.09-1.59.13-3.36.12-5.22,0-8.55-.89-19.32-1-21.06v-.91c.07-3.65-.39-21.93-15.94-28.84-5.73-2.56-12.62-5.61-19.29-8.58-1.72-14.85-5.65-29.62-5.31-44.58,0-2.25.2-4.5.42-6.74,0,.65-.07,1.31-.08,2v4.36c.59-18.71,7.66-37.52,7-55.83-.06,1.79-.19,3.59-.36,5.39.35-6.19-.3-12.4-1.92-18.39-.6-2.11-1.41-4.29-3.14-5.7-1.64-1.14-3.51-1.88-5.48-2.17-4.73-1.21-9.54-2.11-14.39-2.68-.74-2.26-1.83-4.38-3.24-6.29-10.14-13.92-25.16-27-42.92-30-8.91-1.5-19.16-.25-25.22,6.12-.63.56-1.23,1.16-1.78,1.8-3.26,3.89-4.66,9-8,12.88-.22.26-.47.5-.71.75-6.54,5.85-16.73,7.07-24,12.32-1.28.94-2.48,1.99-3.59,3.13-2.93,2.9-5.56,6.1-7.84,9.53-3.27,4.6-6.63,9.39-7.67,14.88-2.09,11,5.4,21.43,6.79,32.5,3.1,24.77-24.31,46.75-19.12,71.19,1.38,6,4.44,11.49,8.82,15.83-10.69,9.68-19.79,19.07-19.79,19.07v.56h-1.69l.17,2h-.17l.93,10.85-.93,15.8v1.49h.06c.31,5.79,1.54,26.61,3,31,1.72,5.09,2.59,30.23,2.59,30.23,0,0,1.9,35.53,3.64,40.23s-.73,21.77,8.3,25.8h0c2.64,2.03,5.77,3.32,9.07,3.76-.46,3.74-.17,6.45,1.32,7.3.64.37,1.36.58,2.1.6-.61.91-1.16,1.86-1.63,2.85-3.58-.37-7.11-1.2-10.48-2.47-9.7-4-41.89-13-51.24-6.67s-31.85,12.07-21.46,37.55,15.23,26.12,15.23,26.12c3.2,2.32,6,5.14,8.31,8.35,3.12,4.69,32.19,15.42,39.46,15.42,3.09-.05,6.18.11,9.25.46,0,0-7.89,6.92-6.84,10.94s-2.4,36.2-2.4,36.2c0,0,8,8.06,11.42-2.51l.12.16c.64.87,4.1,4.8,10.61-.16,2.66-2.02,5.49-3.81,8.46-5.36l31.52-4.46c3.29-.21,6.58-.23,9.87-.07,5,.41,9.91-2.55,13-4.84,6.53,2.48,13.87,5.19,17.36,6.18,7.08,2,39.62,10.73,47.23,8,1.58-.63,2.99-1.63,4.1-2.92l7.26.23-3.4.68s6.62.11,15.62.23l-.38.22,11.29-.1c16.52.15,35.08.2,37.52-.35,3.82-.85,23.67-.25,29.52,0h1.63s21.81-4.35,12.81-26.48c-6.92-17-28.19-21.94-37.63-23.3,2.66-.53,4.95-.94,6.47-1.18,6.59-1,19.39-7,20.43-9.05s11.77-8,14.54-11.39,10.68-27.42,4.11-45.19ZM534.31,427.01l-1.07.35-.72.24-1.38,1.36c-1.1-.74-2.28-1.52-3.51-2.32,2.17.13,4.4.26,6.68.37Z" style="fill: url(#linear-gradient);"/>
      <path d="M598.07,321.57s15.3,40,24,36,6.34-21,8-25.66,3.5-40,3.5-40c0,0,.84-25,2.5-30.06,1.54-4.65,2.79-28.1,3-31.79v-.49l-1.65-29-9.34-2.33-21.66,8-3,17.13-1.17,6.69-.5,2.85-3.68,88.66Z" style="fill: #bea78e;"/>
      <path d="M603.11,314.87s14.6,11.95,19,13,7.1,10.37,7.1,10.37" style="isolation: isolate; opacity: .1;"/>
      <path d="M478.42,323.32s-15.3,40-24,36-6.34-21-8-25.66-3.5-40-3.5-40c0,0-.84-25-2.5-30.06-1.54-4.65-2.79-28.1-3-31.79v-.49l1.66-29,9.34-2.33,21.66,8,3,17.13,1.17,6.69.5,2.85,3.67,88.66Z" style="fill: #bea78e;"/>
      <rect x="543.9" y="109.26" width="34.15" height="53.23" style="fill: #3b3e3e;"/>
      <rect x="543.9" y="109.26" width="34.15" height="53.23" style="isolation: isolate; opacity: .1;"/>
      <path d="M472.42,363.16s-11.67,12.83-7.34,15.16,32.34,46,32.34,46c0,0,92,11.33,109.35-5.67s17-47.37,17-47.37c0,0-13.94,3-15.46,1.37s-9.87-9.49-9.87-9.49c0,0-118.02-7.16-126.02,0Z" style="fill: #5a5b54;"/>
      <path d="M472.42,363.16s-11.67,12.83-7.34,15.16,32.34,46,32.34,46c0,0,92,11.33,109.35-5.67s17-47.37,17-47.37c0,0-13.94,3-15.46,1.37s-9.87-9.49-9.87-9.49c0,0-118.02-7.16-126.02,0Z" style="isolation: isolate; opacity: .02;"/>
      <path d="M638.04,200.99l-30,24-9.07.66-3.33.24-55.93,4.1-58-4.24-8.63-.63-11-.8-23-22s16.28-17.44,30.54-29.21c5.62-4.65,10.93-8.41,14.8-9.89l.66-.23c2.43-.95,4.61-2.46,6.34-4.42,11.26-11.61,21.67-40.26,21.67-40.26,0,0,49.67-25.66,43.67,8s22.33,25.34,22.33,25.34l9.34,4.26,3.69,1.69,9.41,4.31,21.23,9.74c16.66,7.67,15.28,29.34,15.28,29.34Z" style="fill: #bea78e;"/>
      <circle cx="537.38" cy="101.05" r="44.67" style="isolation: isolate; opacity: .1;"/>
      <path d="M638.11,232.81h-200.69v-.49l1.66-29s16.28-17.44,30.54-29.21l126-5,5.86-6.18,21.23,9.74c16.67,7.66,15.33,29.33,15.33,29.33,0,0,2.28,25.11.07,30.81Z" style="isolation: isolate; opacity: .1;"/>
      <path d="M638.11,231.81h-200.69v-.49l1.66-29s16.28-17.44,30.54-29.21l126-5,5.86-6.18,21.23,9.74c16.67,7.66,15.33,29.33,15.33,29.33,0,0,2.28,25.11.07,30.81Z" style="fill: #d9e2e7;"/>
      <path d="M505.21,150.49s31.66,40.34,73.83-.83,4.67,91.83,4.67,91.83l-91,10.8,12.5-101.8Z" style="isolation: isolate; opacity: .1;"/>
      <path d="M505.21,152.49s31.66,40.34,73.83-.83,4.67,91.83,4.67,91.83l-91,10.8,12.5-101.8Z" style="fill: #d9e2e7;"/>
      <path d="M592.07,159.57l3.35,51.09,3.59,17,2.74,13s7,100,5,105,1,9,1.42,11.66-.42,9.34-.09,12.34,0,4.33-7.66,3.26-18.34-2.93-18.34-2.93c0,0-27,2-36.33-1.33s-27-3.34-27-3.34c0,0-26.67.67-35.33-.33s-13.34,10.67-19,7.33,6.66-35.66,10.66-45-5.33-33-5.33-33l12-66.57,2.67-15.09v-47.44l.66-.23c2.43-.95,4.61-2.46,6.34-4.42l3,47.74,94,3.34v-53.73" style="isolation: isolate; opacity: .1;"/>
      <path d="M592.07,157.57l3.35,51.09,3.59,17,2.74,13s7,100,5,105,1,9,1.42,11.66-.42,9.34-.09,12.34,0,4.33-7.66,3.26-18.34-2.93-18.34-2.93c0,0-27,2-36.33-1.33s-27-3.34-27-3.34c0,0-26.67.67-35.33-.33s-13.34,10.67-19,7.33,6.66-35.66,10.66-45-5.33-33-5.33-33l12-66.57,2.67-15.09v-47.44l.66-.23c2.43-.95,4.61-2.46,6.34-4.42l3,47.74,94,3.34v-53.73" style="fill: #d9e2e7;"/>
      <path d="M602.88,50.95c-.57-2.09-1.36-4.26-3-5.66-1.57-1.12-3.37-1.86-5.28-2.16-4.56-1.2-9.2-2.09-13.88-2.66-.67-2.22-1.68-4.32-3-6.23-9.8-13.84-24.3-26.89-41.36-29.84-8.93-1.55-19.28-.16-25,6.88-3.14,3.87-4.49,9-7.66,12.8-6.11,7.38-17.14,8.29-24.84,14-4.11,3-7.09,7.35-10,11.57-3.15,4.57-6.39,9.33-7.39,14.79-2,10.91,5.21,21.31,6.54,32.32,3,24.63-23.4,46.48-18.41,70.78,2.91,14.17,16,24.15,29.54,29.21,4.77,1.79,10.22,3.57,12.45,8.15,1,2,1.17,4.31,2.11,6.33,3.16,6.74,13.55,7,19.13,2.09s7.34-12.85,8-20.26c2.68-32.36-10.28-64.33-8.77-96.77.45-9.81,3.21-20.94,12-25.38,11.83-6,26.06,4,39.08,2.09,6.16,14.99,7.47,31.54,3.74,47.31-2.07,8.63-5.65,17-5.91,25.9-.39,13.55,6.92,25.93,13.24,37.91,1.36,2.24,2.26,4.72,2.67,7.31.1,2.62-.39,5.24-1.43,7.65-3.57,9.61-9.73,18.53-10.43,28.76-.21,1.19.06,2.42.75,3.42.7.67,1.61,1.08,2.58,1.16,10.8,1.85,20.14-7.72,25.41-17.33,5.88-10.61,9.3-22.41,10.02-34.52,1.09-20.36-6.21-40.39-5.76-60.77.52-23.17,10.99-46.5,4.86-68.85Z" style="isolation: isolate; opacity: .1;"/>
      <path d="M603.88,49.95c-.57-2.09-1.36-4.26-3-5.66-1.57-1.12-3.37-1.86-5.28-2.16-4.56-1.2-9.2-2.09-13.88-2.66-.67-2.22-1.68-4.32-3-6.23-9.8-13.84-24.3-26.89-41.36-29.84-8.93-1.55-19.28-.16-25,6.88-3.14,3.87-4.49,9-7.66,12.8-6.11,7.38-17.14,8.29-24.84,14-4.11,3-7.09,7.35-10,11.57-3.15,4.57-6.39,9.33-7.39,14.79-2,10.91,5.21,21.31,6.54,32.32,3,24.63-23.4,46.48-18.41,70.78,2.91,14.17,16,24.15,29.54,29.21,4.77,1.79,10.22,3.57,12.45,8.15,1,2,1.17,4.31,2.11,6.33,3.16,6.74,13.55,7,19.13,2.09s7.34-12.85,8-20.26c2.68-32.36-10.28-64.33-8.77-96.77.45-9.81,3.21-20.94,12-25.38,11.83-6,26.06,4,39.08,2.09,6.16,14.99,7.47,31.54,3.74,47.31-2.07,8.63-5.65,17-5.91,25.9-.39,13.55,6.92,25.93,13.24,37.91,1.36,2.24,2.26,4.72,2.67,7.31.1,2.62-.39,5.24-1.43,7.65-3.57,9.61-9.73,18.53-10.43,28.76-.21,1.19.06,2.42.75,3.42.7.67,1.61,1.08,2.58,1.16,10.8,1.85,20.14-7.72,25.41-17.33,5.88-10.61,9.3-22.41,10.02-34.52,1.09-20.36-6.21-40.39-5.76-60.77.52-23.17,10.99-46.5,4.86-68.85Z" style="fill: #3b3e3e;"/>
      <polygon points="581.79 492.72 621.46 493.99 615.77 464.57 585.38 467.46 581.79 492.72" style="fill: #d9d9d0;"/>
      <path d="M704.71,422.99c-2.67,3.33-13,9.33-14,11.33s-13.33,8-19.67,9-26.33,5.34-30,7.67c-2.63,1.68-23.74,7-37.61,9.95-3.76.89-7.56,1.57-11.39,2.05-6,.33-71.66-22-71.66-22l12.66-13,.7-.24c3.58-1.21,20.12-6.8,29.3-9.46,10.34-3,22.34-15.33,22.34-15.33,0,0,17.66-6,20-6.67s-6-23.33-6-23.33c0,0,38.33-5.32,53.33-9.83s49.67-2.84,56,14.83-1.29,41.7-4,45.03Z" style="fill: #5a5b54;"/>
      <path d="M530.04,479.32s-7.66,8-15.33,7.34-34.49,2-34.49,2c-4.86,1.94-9.41,4.58-13.51,7.83-6.27,4.94-9.6,1-10.22.16l-.11-.16c-3.34,10.51-11,2.5-11,2.5,0,0,3.33-32,2.31-36s6.59-10.87,6.59-10.87l9-2.29,22.8-5.84,32.67,11.33,11.29,24Z" style="fill: #d9e2e7;"/>
      <path d="M463.24,449.83l-6.75,46.82-.11-.16c-3.34,10.51-11,2.5-11,2.5,0,0,3.33-32,2.31-36s6.59-10.87,6.59-10.87l8.96-2.29Z" style="isolation: isolate; opacity: .1;"/>
      <path d="M510.42,316.65s17.66,6,33,0" style="isolation: isolate; opacity: .1;"/>
      <path d="M570.71,327.99s7.33,3.66,13,0" style="isolation: isolate; opacity: .1;"/>
      <path d="M570.71,336.67s12.33,1.65,14.67-1.68" style="isolation: isolate; opacity: .1;"/>
      <path d="M566.71,355.32s23.16-3,28.91-7" style="isolation: isolate; opacity: .1;"/>
      <path d="M496.04,348.32s13,7.33,22.67,7" style="isolation: isolate; opacity: .1;"/>
      <path d="M603.42,460.94c-3.76.89-7.56,1.57-11.39,2.05-6,.33-71.66-22-71.66-22l12.66-13,.7-.24c2,1.41,3.64,2.62,4.81,3.54,5.51,4.34,10.83-1.33,12.83-1.33s19.33,14.33,19.33,14.33c0,0,16,3.67,18.67,7s12,2.67,13.66,5c.5.72.56,2.49.39,4.65Z" style="isolation: isolate; opacity: .1;"/>
      <path d="M480.22,374.32s-16.18.93-25.51-3-40.33-13-49.33-6.63-30.67,12-20.67,37.34,14.67,26,14.67,26c3.09,2.32,5.8,5.12,8,8.3,3,4.67,31,15.33,38,15.33s19.33,0,36.66,12,33,13.34,33,13.34c0,0,22,9,28.85,11s38.15,10.66,45.49,8,12-19.34,12-19.34c0,0,3.33-15,1.66-17.33s-11-1.67-13.66-5-18.67-7-18.67-7c0,0-17.29-14.34-19.29-14.34s-7.32,5.66-12.83,1.33c-10.98-8.13-22.51-15.48-34.51-22-12.66-6.67-23.86-38-23.86-38Z" style="fill: #5a5b54;"/>
      <path d="M447.69,383.99c5.84-1.19,11.9.41,16.39,4.33,8,6.67,34.92,20.06,34.92,20.06" style="isolation: isolate; opacity: .1;"/>
      <path d="M647.71,383.57s-35.67,5.4-42.33,12.73" style="isolation: isolate; opacity: .1;"/>
      <path d="M688.71,493.99h-1.57c-5.64-.2-24.75-.8-28.43,0-4.33,1-61.67,0-61.67,0l11.21-2.33s-4.16-14.58-1.52-15.79c0,0-15-9.88-3.69-16.55s23.5-3.86,23.5-3.86l28.39-9.62,5.45-1.85s32,1.67,40.66,23.67-12.33,26.33-12.33,26.33Z" style="fill: #d9e2e7;"/>
      <path d="M688.71,493.99h-1.57c9.31-7.68,30.37-31.06-32.21-48.1l5.45-1.85s32,1.67,40.66,23.67c8.66,22-12.33,26.28-12.33,26.28Z" style="isolation: isolate; opacity: .1;"/>
      <circle cx="629.88" cy="466.32" r="1.75" style="fill: #5a5b54;"/>
      <circle cx="619.71" cy="469.21" r="1.75" style="fill: #5a5b54;"/>
      <g style="opacity: .1;">
        <path d="M570.16,99.4c.39-11-1.57-21.96-5.74-32.14-13,1.94-27.24-8.09-39.08-2.09-8.76,4.44-11.51,15.57-12,25.38-.12,2.59-.14,5.18-.09,7.77,0-.92,0-1.85.09-2.77.46-9.81,3.21-20.94,12-25.38,11.84-6,26.06,4,39.08,2.09,3.53,8.63,5.48,17.82,5.74,27.14Z"/>
        <path d="M469.42,97.57c.17-2.18.13-4.37-.13-6.54-1.06-8.8-5.87-17.21-6.74-25.79-1.12,10.35,5.47,20.29,6.74,30.79.13.54.13,1.02.13,1.54Z"/>
        <path d="M522.11,187.31c-.62,7.42-2.37,15.35-8,20.27s-16,4.65-19.13-2.09c-1-2-1.15-4.33-2.12-6.33-2.22-4.58-7.68-6.36-12.45-8.15-13.55-5.07-26.62-15-29.53-29.21-.26-1.29-.44-2.59-.53-3.9-.25,2.98-.07,5.97.53,8.9,2.91,14.17,16,24.14,29.53,29.21,4.77,1.79,10.23,3.57,12.45,8.15,1,2,1.17,4.31,2.12,6.33,3.15,6.74,13.54,7,19.13,2.09s7.33-12.85,8-20.27c.3-3.91.41-7.82.31-11.74,0,2.27-.13,4.51-.31,6.74Z"/>
        <path d="M599.35,114.06v4.33c.56-18.6,7.38-37.3,6.71-55.51-.52,16.84-6.33,34.06-6.71,51.18Z"/>
        <path d="M577.89,189.3c.25-1.19.32-2.4.23-3.61-.4-2.59-1.31-5.07-2.67-7.31-5.78-11-12.37-22.26-13.15-34.47,0,.52-.07,1-.08,1.56-.4,13.54,6.91,25.93,13.23,37.91,1.07,1.86,1.89,3.85,2.44,5.92Z"/>
        <path d="M605.1,174.83c-.75,12.12-4.19,23.91-10.09,34.52-5.28,9.61-14.61,19.18-25.42,17.33-.97-.08-1.88-.5-2.58-1.17-.2-.23-.36-.49-.47-.78-.12.78-.22,1.57-.28,2.37-.21,1.19.06,2.42.75,3.41.7.67,1.61,1.09,2.58,1.17,10.81,1.85,20.14-7.72,25.42-17.33,5.9-10.61,9.34-22.4,10.09-34.52.12-2.34.13-4.67.06-7-.02.67-.02,1.33-.06,2Z"/>
      </g>
      <path d="M606.73,475.87s25.31,10.62,42-12.88" style="fill: none; isolation: isolate; opacity: .1; stroke: #000; stroke-miterlimit: 10;"/>
      <path d="M611.71,494.43s20.67-13.44,47-.44" style="fill: none; isolation: isolate; opacity: .1; stroke: #000; stroke-miterlimit: 10;"/>
      <path d="M473.35,491.38s8.68-19.58,31.86-4.65" style="fill: none; isolation: isolate; opacity: .1; stroke: #000; stroke-miterlimit: 10;"/>
      <path d="M445.21,201.82l17.7-16s68.63-4.5,71.47,18.83c0,0,24.33-27.66,75.5-21.5l21.65,17.24-59.84,26.26-58.15,20.17-42.83-19.17-25.5-25.83Z" style="isolation: isolate; opacity: .1;"/>
      <path d="M445.21,202.82l17.7-16s68.63-4.5,71.47,18.83c0,0,24.33-27.66,75.5-21.5l21.65,17.24-59.84,26.26-58.15,20.17-42.83-19.17-25.5-25.83Z" style="fill: #dbdbd9;"/>
      <polygon points="437.38 204.82 445.21 298.49 528.21 302.66 524.61 209.39 524.54 207.82 437.38 204.82" style="isolation: isolate; opacity: .1;"/>
      <polygon points="437.38 202.82 445.21 296.49 528.21 300.66 524.61 207.39 524.54 205.82 437.38 202.82" style="fill: #aed697;"/>
      <polygon points="635.33 202.82 549.71 215.66 549.71 309.75 633.38 297.66 635.33 202.82" style="isolation: isolate; opacity: .1;"/>
      <polygon points="635.33 200.82 549.71 213.66 549.71 307.75 633.38 295.66 635.33 200.82" style="fill: #aed697;"/>
      <polygon points="615.14 223.78 568.89 228.92 569.9 244.68 615.11 239.74 615.14 223.78" style="fill: #fff; isolation: isolate; opacity: .3;"/>
      <path d="M449.71,346.65l4.71,12.67s7,6,14.66,3,14.34-4.49,17.67-7.41,8-17.59,8-17.59c0,0,4.67-16,9.33-20s17-59.11,0-53.72-30,55.39-30,55.39c0,0-3,3.66-7.33,4s-13-.67-14.67,3-7.37,13.33-2.37,20.66Z" style="fill: #bea78e;"/>
      <path d="M549.71,215.65c-8.89,2-18.2-.32-25.11-6.26l3.61,93.26s8.5,9.2,21.5,7.1v-94.1Z" style="isolation: isolate; opacity: .1;"/>
      <path d="M549.71,213.65c-8.89,2-18.2-.32-25.11-6.26l3.61,93.26s8.5,9.2,21.5,7.1v-94.1Z" style="fill: #aed697;"/>
      <path d="M549.71,213.65c-8.89,2-18.2-.32-25.11-6.26l3.61,93.26s8.5,9.2,21.5,7.1v-94.1Z" style="isolation: isolate; opacity: .1;"/>
      <path d="M551.71,203.14s34.83-10.65,43.91-9.15" style="isolation: isolate; opacity: .1;"/>
      <path d="M512.75,198.49s-33.76-8-39.4-5.73" style="isolation: isolate; opacity: .1;"/>
      <path d="M573.67,204.47s23.29-8.54,31.71-4.48" style="isolation: isolate; opacity: .1;"/>
      <path d="M561.94,418.7c3.61-2.71,7.45-5.1,11.48-7.13,6-2.89,17-10.39,17-10.39" style="isolation: isolate; opacity: .1;"/>
      <path d="M473.35,316.65s-14.61,11.95-19,13-7.1,10.37-7.1,10.37" style="isolation: isolate; opacity: .1;"/>
      <path d="M626.74,344.87l-4.66,12.7s-7,6-14.67,3-14.33-4.49-17.67-7.41-8-17.59-8-17.59c0,0-4.66-16-9.33-20s-17-59.11,0-53.72,30,55.39,30,55.39c0,0,3,3.66,7.33,4s13-.67,14.67,3,7.33,13.33,2.33,20.63Z" style="fill: #bea78e;"/>
      <path d="M618.57,321.51s9.55,6.14,9.51,13.48" style="isolation: isolate; opacity: .1;"/>
      <circle cx="537.54" cy="98.86" r="44.67" style="fill: #bea78e;"/>
      <path d="M509.49,86.87c5.42-.85,10.17-4,15.35-5.81,11.59-4.07,24.41-1.28,36.14,2.39,4.5,1.41,9.07,3,13.79,3s9.73-1.93,12.14-6c2.22-3.74,1.79-8.6-.08-12.53s-5-7.09-8.16-10.07c-10.4-9.82-23.3-19-37.57-18-5.74.41-11.23,2.46-16.51,4.73-6.65,2.86-13.12,6.12-19.38,9.76-4.81,2.79-13.72,6.52-16.49,11.62-6.3,11.49,10.97,22.45,20.77,20.91Z" style="fill: #3b3e3e;"/>
      <path d="M586.91,76.25c-2.41,4.07-7.42,6-12.14,6s-9.29-1.53-13.8-2.94c-11.73-3.67-24.54-6.47-36.14-2.39-5.17,1.81-9.93,5-15.35,5.8-7.9,1.24-20.62-5.64-22-14.39-1.55,10.11,13.2,18.77,22,17.39,5.42-.85,10.18-4,15.35-5.8,11.6-4.08,24.41-1.28,36.14,2.39,4.51,1.41,9.07,3,13.8,2.94s9.73-1.92,12.14-6c1.25-2.22,1.74-4.79,1.4-7.31-.16,1.52-.63,2.99-1.4,4.31Z" style="isolation: isolate; opacity: .1;"/>
      <path d="M949.42,618.2s5.93,7.75-2.74,19.46-15.81,21.59-12.93,28.89c0,0,13.08-21.74,23.72-22.05s3.64-13.23-8.05-26.3Z" style="fill: #aed697;"/>
      <path d="M949.42,618.2c.52.75.92,1.57,1.21,2.43,10.38,12.2,15.92,23.59,5.93,23.87-9.3.27-20.45,16.9-23.12,21.09.09.34.19.67.31,1,0,0,13.08-21.74,23.72-22.05s3.64-13.27-8.05-26.34Z" style="isolation: isolate; opacity: .1;"/>
      <path d="M960.42,628.08c0,2.73-.31,4.94-.68,4.94s-.69-2.21-.69-4.94.38-1.44.76-1.44.61-1.29.61,1.44Z" style="fill: #5aa25a;"/>
      <path d="M964.21,631.34c-2.39,1.3-4.48,2.09-4.66,1.76s1.61-1.66,4-3,1.45-.36,1.63,0,1.43-.07-.97,1.24Z" style="fill: #5aa25a;"/>
      <path d="M918.08,618.2s-5.93,7.75,2.74,19.46,15.81,21.59,12.92,28.89c0,0-13.07-21.74-23.72-22.05s-3.6-13.23,8.06-26.3Z" style="fill: #aed697;"/>
      <path d="M918.08,618.2c-.52.75-.92,1.57-1.21,2.43-10.38,12.2-15.92,23.59-5.93,23.87,9.29.27,20.45,16.9,23.12,21.09-.08.34-.19.67-.32,1,0,0-13.07-21.74-23.72-22.05s-3.6-13.27,8.06-26.34Z" style="isolation: isolate; opacity: .1;"/>
      <path d="M907.06,628.08c0,2.73.3,4.94.68,4.94s.69-2.21.69-4.94-.39-1.44-.76-1.44-.61-1.29-.61,1.44Z" style="fill: #5aa25a;"/>
      <path d="M903.28,631.34c2.39,1.3,4.48,2.09,4.66,1.76s-1.61-1.66-4-3-1.45-.36-1.63,0-1.43-.07.97,1.24Z" style="fill: #5aa25a;"/>
      <ellipse cx="933.75" cy="716.36" rx="62" ry="9.51" style="fill: #aed697; isolation: isolate; opacity: .1;"/>
      <path d="M965.66,656.1l-.3,2.42-.42,3.42-.17,1.43-.42,3.42-.18,1.43-.41,3.41-4.75,38.9c-.42,3.47-6.09,6.18-12.94,6.18h-24.65c-6.85,0-12.51-2.71-12.94-6.18l-4.75-38.9-.42-3.41-.17-1.43-.42-3.42-.18-1.43-.41-3.42-.3-2.42c-.23-2,2.83-3.62,6.71-3.62h50.42c3.87,0,6.94,1.65,6.7,3.62Z" style="fill: #797d71;"/>
      <polygon points="965.36 658.52 964.95 661.94 902.55 661.94 902.13 658.52 965.36 658.52" style="fill: #b3b5ab;"/>
      <polygon points="964.77 663.37 964.36 666.79 903.14 666.79 902.72 663.37 964.77 663.37" style="fill: #b3b5ab;"/>
      <polygon points="964.18 668.22 963.76 671.64 903.73 671.64 903.32 668.22 964.18 668.22" style="fill: #b3b5ab;"/>
    </g>
  </g>
</svg>