<?xml version="1.0" encoding="UTF-8"?>
<svg id="Layer_2" xmlns="http://www.w3.org/2000/svg" viewBox="0 0 60 77.86">
  <g id="Layer_1-2" data-name="Layer_1">
    <path d="M59.98,39.03c0,8.86-.03,17.73.02,26.59.01,1.99-.7,3.56-2.1,4.89-2.01,1.9-4.44,3.07-6.99,4.02-4.32,1.61-8.81,2.54-13.4,2.9-2.77.22-5.55.47-8.32.42-6.78-.13-13.47-.99-19.85-3.46-2.58-1-5.05-2.2-7.11-4.12C.75,68.9.01,67.27.02,65.19.05,47.72.07,30.25,0,12.78c-.01-2.77,1.09-4.74,3.2-6.31,2.68-2,5.74-3.2,8.9-4.14,3.55-1.05,7.17-1.8,10.87-2.01,3.59-.2,7.19-.43,10.78-.27,6.47.29,12.81,1.44,18.78,4.11,2.13.95,4.14,2.11,5.76,3.84,1.13,1.2,1.71,2.58,1.7,4.28-.04,8.91-.02,17.83-.02,26.74ZM30.75,16.9c1.29-.08,3.34-.1,5.35-.36,2.9-.37,5.79-.81,8.65-1.42,1.97-.41,3.86-1.17,5.45-2.49,1.69-1.4,1.78-3.13.08-4.52-.87-.71-1.9-1.31-2.95-1.73-4.92-1.98-10.12-2.46-15.35-2.66-1.93-.07-3.88-.01-5.81.15-2.71.23-5.43.49-8.1.95-2.64.45-5.23,1.17-7.52,2.66-2.7,1.76-2.71,4,.09,5.62,1.4.81,2.93,1.44,4.48,1.91,4.85,1.45,9.85,1.78,15.63,1.9ZM44.86,46.48c-1.53.85-2.29,2.1-2.6,3.6-.21,1.02-.31,2.07-.34,3.11-.05,1.86-.02,3.73-.02,5.59,0,1.68-.6,2.36-2.28,2.54-.46.05-.63.23-.63.67,0,1.07.01,2.15,0,3.22,0,.49.21.71.7.66.91-.09,1.83-.13,2.73-.29,1.96-.36,3.77-1,4.74-2.96.67-1.38.97-2.85,1-4.36.04-2.17,0-4.34.02-6.51.02-1.75.54-2.31,2.25-2.37.51-.02.66-.21.66-.69-.02-1.48-.04-2.96,0-4.44.02-.68-.19-.87-.87-.86-1.59,0-2.05-.49-2.06-2.06,0-1.61.05-3.22-.02-4.83-.1-2.4-1.17-5.12-4.34-5.86-1.38-.32-2.8-.47-4.21-.67-.47-.07-.61.24-.61.67,0,.97,0,1.94,0,2.91q0,1.29,1.28,1.27c1.39-.02,1.6.2,1.63,1.57.04,1.96.04,3.93.16,5.89.11,1.83.76,3.39,2.8,4.23ZM15.91,46.24c1.85-.78,2.45-2.21,2.52-3.91.08-1.94.12-3.87.14-5.81.03-1.9.02-1.9,1.87-1.88.1,0,.21,0,.31,0,.51.06.75-.15.74-.69-.02-1.17-.02-2.35,0-3.52,0-.55-.24-.74-.75-.68-1.24.14-2.49.19-3.7.46-2.43.52-3.96,2.02-4.35,4.53-.12.75-.17,1.52-.19,2.28-.03,1.53,0,3.06-.03,4.6-.02,1.08-.44,1.51-1.5,1.64-.23.03-.46.13-.68.11-.57-.05-.69.27-.69.74,0,1.35.03,2.71-.01,4.06-.03.77.27,1.03,1.02,1.03,1.22,0,1.8.61,1.86,1.85.03.74,0,1.48.03,2.22.09,2.32.08,4.64.32,6.94.18,1.75.96,3.28,2.62,4.17,1.71.92,3.56,1.19,5.47,1.21.44,0,.58-.21.58-.61,0-1.07,0-2.14,0-3.22,0-.4-.15-.57-.58-.61-1.62-.15-2.29-.91-2.32-2.52-.04-2.63-.05-5.26-.17-7.88-.08-1.81-.61-3.47-2.5-4.52Z" style="fill: #0079d6;"/>
  </g>
</svg>